<?xml version="1.0" encoding="UTF-8" standalone="no"?>
<!-- Created with Inkscape (http://www.inkscape.org/) -->

<svg
   width="320"
   height="320"
   viewBox="0 0 84.666665 84.666669"
   version="1.1"
   id="svg5"
   inkscape:version="1.1.2 (0a00cf5339, 2022-02-04)"
   sodipodi:docname="phone.svg"
   xmlns:inkscape="http://www.inkscape.org/namespaces/inkscape"
   xmlns:sodipodi="http://sodipodi.sourceforge.net/DTD/sodipodi-0.dtd"
   xmlns="http://www.w3.org/2000/svg"
   xmlns:svg="http://www.w3.org/2000/svg">
  <sodipodi:namedview
     id="namedview7"
     pagecolor="#ffffff"
     bordercolor="#666666"
     borderopacity="1.0"
     inkscape:pageshadow="2"
     inkscape:pageopacity="0.0"
     inkscape:pagecheckerboard="0"
     inkscape:document-units="mm"
     showgrid="false"
     units="px"
     height="320px"
     inkscape:zoom="0.95924995"
     inkscape:cx="297.62837"
     inkscape:cy="201.7201"
     inkscape:window-width="1850"
     inkscape:window-height="1016"
     inkscape:window-x="0"
     inkscape:window-y="0"
     inkscape:window-maximized="1"
     inkscape:current-layer="layer1" />
  <defs
     id="defs2" />
  <g
     inkscape:label="Layer 1"
     inkscape:groupmode="layer"
     id="layer1">
    <path
       id="path986"
       style="fill:#d2b344;stroke-width:11.8933;stroke-linecap:round;stroke-linejoin:round;paint-order:markers stroke fill"
       d="M 42.333332,0 A 42.33333,42.33333 0 0 0 0,42.333333 42.33333,42.33333 0 0 0 42.333332,84.666663 42.33333,42.33333 0 0 0 84.666665,42.333333 42.33333,42.33333 0 0 0 42.333332,0 Z M 26.547216,16.34939 c 0.350772,0 0.613711,0.03749 0.789099,0.112654 0.450994,0.150334 1.115194,1.102291 1.992127,2.856159 0.275608,0.476046 0.651531,1.152392 1.127579,2.029333 0.476051,0.876927 0.914285,1.672854 1.315166,2.386933 0.400884,0.714073 0.789473,1.383834 1.165303,2.010214 0.07516,0.100219 0.294022,0.413835 0.657324,0.939993 0.363303,0.526161 0.632837,0.970476 0.80822,1.33377 0.175388,0.363307 0.263033,0.720479 0.263033,1.071253 0,0.501105 -0.357179,1.12781 -1.071253,1.87947 -0.714072,0.751647 -1.490739,1.440672 -2.33009,2.067058 -0.839351,0.626379 -1.616017,1.290071 -2.33009,1.991611 -0.714075,0.701553 -1.070736,1.278099 -1.070736,1.729092 0,0.225493 0.06231,0.507174 0.187586,0.845425 0.125277,0.338241 0.231667,0.595112 0.31936,0.770496 0.08769,0.175395 0.263502,0.475822 0.526583,0.901756 0.263079,0.425936 0.40696,0.664046 0.432015,0.714166 1.904199,3.43256 4.083723,6.3766 6.539135,8.83202 2.455412,2.45541 5.399449,4.63545 8.832019,6.53965 0.05012,0.025 0.288235,0.16888 0.714169,0.43202 0.425939,0.26308 0.726889,0.43837 0.90227,0.52606 0.175388,0.0877 0.432247,0.19409 0.770496,0.31936 0.338242,0.12528 0.619929,0.18811 0.845426,0.18811 0.450994,0 1.027032,-0.35719 1.728577,-1.07126 0.701545,-0.71407 1.365736,-1.49073 1.992127,-2.33009 0.62638,-0.83935 1.315402,-1.61601 2.067054,-2.33009 0.75166,-0.71407 1.37785,-1.07125 1.87896,-1.07125 0.35077,0 0.70795,0.0876 1.07125,0.26303 0.36331,0.17538 0.80813,0.44492 1.33429,0.80822 0.52616,0.3633 0.83925,0.58268 0.93947,0.65784 0.62638,0.37583 1.29665,0.76391 2.01073,1.16479 0.71408,0.40089 1.50949,0.83964 2.38642,1.31568 0.87693,0.47605 1.55328,0.85198 2.02933,1.12758 1.75386,0.87694 2.70634,1.54062 2.85668,1.99161 0.0752,0.1754 0.11265,0.43833 0.11265,0.7891 0,0.67649 -0.12513,1.56006 -0.37568,2.64997 -0.25056,1.08989 -0.51402,1.94762 -0.78962,2.574 -0.52616,1.25277 -2.05415,2.58117 -4.58473,3.98425 -2.3552,1.27783 -4.68571,1.91668 -6.99079,1.91668 -0.67649,0 -1.33409,-0.0441 -1.97301,-0.13177 -0.638901,-0.0877 -1.359338,-0.24425 -2.161107,-0.46974 -0.80177,-0.2255 -1.396547,-0.40739 -1.784904,-0.54519 -0.388352,-0.1378 -1.083966,-0.39415 -2.086178,-0.76998 -1.002206,-0.37582 -1.615727,-0.60179 -1.841231,-0.67696 -2.455405,-0.87692 -4.648115,-1.91653 -6.577376,-3.11918 -3.207066,-1.97937 -6.520435,-4.67921 -9.940479,-8.09925 -3.420039,-3.42005 -6.119883,-6.73342 -8.099247,-9.94048 -1.202652,-1.92926 -2.242256,-4.12145 -3.119189,-6.576862 -0.07517,-0.225486 -0.300616,-0.839528 -0.676445,-1.841746 -0.375828,-1.002207 -0.632692,-1.697302 -0.770495,-2.085663 -0.137804,-0.388344 -0.319689,-0.983638 -0.545186,-1.785418 -0.225497,-0.801762 -0.382046,-1.522196 -0.469739,-2.161109 -0.08769,-0.6389 -0.131258,-1.296514 -0.131258,-1.973006 0,-2.305087 0.638862,-4.635092 1.916678,-6.99027 1.403094,-2.530589 2.730975,-4.059092 3.983737,-4.585251 0.62638,-0.2756 1.484617,-0.538546 2.574519,-0.789098 1.089903,-0.250561 1.972959,-0.37569 2.649451,-0.37569 z" />
  </g>
</svg>
