<?xml version="1.0" encoding="UTF-8" standalone="no"?>
<!-- Created with Inkscape (http://www.inkscape.org/) -->

<svg
   width="282.9407"
   height="179.71043"
   viewBox="0 0 74.861393 47.548387"
   version="1.1"
   id="svg34821"
   inkscape:version="1.1.2 (0a00cf5339, 2022-02-04)"
   sodipodi:docname="boom.svg"
   xmlns:inkscape="http://www.inkscape.org/namespaces/inkscape"
   xmlns:sodipodi="http://sodipodi.sourceforge.net/DTD/sodipodi-0.dtd"
   xmlns="http://www.w3.org/2000/svg"
   xmlns:svg="http://www.w3.org/2000/svg">
  <sodipodi:namedview
     id="namedview34823"
     pagecolor="#ffffff"
     bordercolor="#666666"
     borderopacity="1.0"
     inkscape:pageshadow="2"
     inkscape:pageopacity="0.0"
     inkscape:pagecheckerboard="0"
     inkscape:document-units="mm"
     showgrid="false"
     inkscape:zoom="3.3540597"
     inkscape:cx="141.47035"
     inkscape:cy="89.891067"
     inkscape:window-width="1850"
     inkscape:window-height="1016"
     inkscape:window-x="0"
     inkscape:window-y="0"
     inkscape:window-maximized="1"
     inkscape:current-layer="layer1"
     showguides="false"
     units="px"
     fit-margin-top="0"
     fit-margin-left="0"
     fit-margin-right="0"
     fit-margin-bottom="0" />
  <defs
     id="defs34818">
    <filter
       inkscape:collect="always"
       style="color-interpolation-filters:sRGB"
       id="filter56251"
       x="-0.044230698"
       y="-0.023007544"
       width="1.088354"
       height="1.0460163">
      <feGaussianBlur
         inkscape:collect="always"
         stdDeviation="0.072410583"
         id="feGaussianBlur56253" />
    </filter>
    <filter
       inkscape:collect="always"
       style="color-interpolation-filters:sRGB"
       id="filter64041"
       x="-0.038102352"
       y="-0.023246106"
       width="1.076173"
       height="1.0465504">
      <feGaussianBlur
         inkscape:collect="always"
         stdDeviation="0.078442837"
         id="feGaussianBlur64043" />
    </filter>
    <filter
       inkscape:collect="always"
       style="color-interpolation-filters:sRGB"
       id="filter64041-4"
       x="-0.038102352"
       y="-0.023246106"
       width="1.076173"
       height="1.0465504">
      <feGaussianBlur
         inkscape:collect="always"
         stdDeviation="0.078442837"
         id="feGaussianBlur64043-9" />
    </filter>
    <filter
       inkscape:collect="always"
       style="color-interpolation-filters:sRGB"
       id="filter66798"
       x="-0.046389125"
       y="-0.037602667"
       width="1.0927794"
       height="1.0752053">
      <feGaussianBlur
         inkscape:collect="always"
         stdDeviation="0.08957565"
         id="feGaussianBlur66800" />
    </filter>
    <filter
       inkscape:collect="always"
       style="color-interpolation-filters:sRGB"
       id="filter69433"
       x="-0.068392543"
       y="-0.076745186"
       width="1.1365901"
       height="1.1536097">
      <feGaussianBlur
         inkscape:collect="always"
         stdDeviation="0.022015378"
         id="feGaussianBlur69435" />
    </filter>
    <filter
       inkscape:collect="always"
       style="color-interpolation-filters:sRGB"
       id="filter75890"
       x="-0.057979032"
       y="-0.03192658"
       width="1.1159564"
       height="1.0638497">
      <feGaussianBlur
         inkscape:collect="always"
         stdDeviation="0.045343851"
         id="feGaussianBlur75892" />
    </filter>
  </defs>
  <g
     inkscape:label="Layer 1"
     inkscape:groupmode="layer"
     id="layer1">
    <path
       style="fill:#000000;fill-opacity:1;stroke:#000000;stroke-width:0.529167;stroke-linecap:round;stroke-linejoin:round;stroke-miterlimit:4;stroke-dasharray:none;stroke-opacity:1;filter:url(#filter75890)"
       d="m 65.009498,20.898853 2.88503,-0.0419 c 0.4556,-2.58849 1.45049,-6.40507 1.84737,-7.47316 0.51916,-1.33824 1.12743,-2.63954 1.70801,-3.9518803 -1.53361,-0.31443 -3.12425,-0.30094 -4.65577,0.005 -0.38829,2.2756403 -0.81121,4.2737203 -1.1477,6.4903903 -0.25492,1.60625 -0.4732,3.11981 -0.63694,4.97107 z"
       id="path69578-1"
       sodipodi:nodetypes="ccccccc" />
    <path
       id="path47575-6"
       style="fill:#f01c25;fill-opacity:1;stroke:#000000;stroke-width:2.64583;stroke-linecap:round;stroke-linejoin:round;stroke-miterlimit:4;stroke-dasharray:none;stroke-opacity:1"
       d="m 19.214748,15.680153 c -0.14524,0.002 -0.30074,0.009 -0.46767,0.0217 -1.78065,0.13062 -4.9169,1.58442 -6.88589,2.50166 l 0.0718,16.04398 c 0,0 0.10621,0.47724 0.71159,0.48524 0.60538,0.008 7.10083,-3.9926 8.11733,-5.33611 1.0165,-1.34351 1.33093,-2.49014 0.64286,-3.78065 -0.68807,-1.2905 -2.09883,-0.99794 -3.41995,-0.7276 0,0 1.57716,-1.39166 2.40347,-3.05769 0.82632,-1.66603 1.35115,-3.65781 0.99115,-4.73822 -0.32625,-0.97912 -0.7608,-1.43303 -2.16472,-1.41231 z m -1.78801,4.19819 c 0.20195,-0.003 0.35819,0.0818 0.48886,0.33745 0.23231,0.45442 -0.1422,1.66203 -0.70796,2.43602 -0.56577,0.77399 -1.69137,1.84588 -1.69137,1.84588 l 0.0108,-3.50624 c 0.42782,-0.62117 0.82996,-0.82455 1.33636,-0.98495 0.22155,-0.0702 0.4062,-0.1257 0.56327,-0.12816 z m -0.19172,6.65075 c 0.42195,0.002 0.89188,0.087 1.12758,0.43977 0.39699,0.59412 -0.14647,1.07858 -0.7338,1.66398 -0.58734,0.5854 -1.60908,1.12201 -2.4474,1.63556 l 0.003,-3.13262 c 0,0 0.96608,-0.50295 1.34255,-0.55139 0.4289,-0.0552 0.41926,-0.0564 0.70797,-0.0553 z"
       sodipodi:nodetypes="ssccssscssssssccsssssccss" />
    <path
       id="path35462"
       style="fill:#fff200;fill-opacity:1;stroke:#000000;stroke-width:2.64583;stroke-linecap:round;stroke-linejoin:round;stroke-miterlimit:4;stroke-dasharray:none;stroke-opacity:1;paint-order:markers stroke fill"
       d="m 33.366118,1.3227127 c -1.44262,4.55126 -2.3491,7.46757 -5.18418,8.7007603 -2.83508,1.23319 -9.08818,-1.8829603 -12.43587,-4.1048203 1.71679,4.2644503 2.62131,6.3364303 1.13423,9.2750503 -1.48708,2.93862 -8.8724598,0.97228 -13.4493098,0.58807 2.51172,2.04456 8.0051298,5.5067 7.9400898,7.69152 -0.065,2.18482 -6.3249698,5.17037 -10.0484798,6.88796 3.5308,0.56906 13.3258398,-0.63555 16.1318298,3.10935 1.27029,2.17951 -0.0941,4.92593 -1.07384,7.04195 3.83945,-2.98176 8.49752,-5.33878 12.59045,-3.8201 4.09293,1.51868 3.54334,5.82134 4.78782,9.53327 1.39452,-3.49707 2.38154,-8.20418 6.643,-8.75915 4.26146,-0.55497 7.08068,3.26061 10.42314,6.07973 0.1906,-3.66403 -1.36621,-7.17605 1.29243,-8.56692 2.65864,-1.39087 6.8326,0.74265 10.2588,1.71307 -2.64301,-4.0859 -2.38783,-7.62793 -0.49351,-9.13587 1.89432,-1.50794 7.74859,-1.44998 11.65614,-1.99678 -5.02142,-2.02265 -12.70918,-3.84156 -13.57488,-6.37842 -0.8657,-2.53686 5.00356,-4.56607 7.58661,-6.75928 -4.77661,0.18034 -12.16482,0.0712 -13.83688,-0.63252 -1.67206,-0.7037 -1.09587,-5.9423003 -1.17357,-8.9586303 -3.38314,4.17215 -5.0012,6.62256 -9.83919,7.7411303 -4.83799,1.11857 -7.09609,-5.1684703 -9.33483,-9.2493703 z"
       sodipodi:nodetypes="czczczccczczczczczczczc" />
    <path
       id="path47575-1"
       style="mix-blend-mode:normal;fill:#000000;fill-opacity:1;stroke:#000000;stroke-width:0.529167;stroke-linecap:round;stroke-linejoin:round;stroke-miterlimit:4;stroke-dasharray:none;stroke-opacity:1;filter:url(#filter56251)"
       d="m 19.585248,15.944693 c -0.14524,0.002 -0.30074,0.009 -0.46767,0.0217 -1.78065,0.13062 -4.9169,1.58442 -6.88589,2.50166 l 0.0718,16.04398 c 0,0 0.10621,0.47724 0.71159,0.48524 0.60538,0.008 7.10083,-3.9926 8.11733,-5.33611 1.0165,-1.34351 1.33093,-2.49014 0.64286,-3.78065 -0.68807,-1.2905 -2.09883,-0.99794 -3.41995,-0.7276 0,0 1.57716,-1.39166 2.40347,-3.05769 0.82632,-1.66603 1.35115,-3.65781 0.99115,-4.73822 -0.32625,-0.97912 -0.7608,-1.43303 -2.16472,-1.41231 z m -1.78801,4.19819 c 0.20195,-0.003 0.35819,0.0818 0.48886,0.33745 0.23231,0.45442 -0.1422,1.66203 -0.70796,2.43602 -0.56577,0.77399 -1.69137,1.84588 -1.69137,1.84588 l 0.0108,-3.50624 c 0.42782,-0.62117 0.82996,-0.82455 1.33636,-0.98495 0.22155,-0.0702 0.4062,-0.1257 0.56327,-0.12816 z m -0.19172,6.65075 c 0.42195,0.002 0.89188,0.087 1.12758,0.43977 0.39699,0.59412 -0.14647,1.07858 -0.7338,1.66398 -0.58734,0.5854 -1.60908,1.12201 -2.4474,1.63556 l 0.003,-3.13262 c 0,0 0.96608,-0.50295 1.34255,-0.55139 0.4289,-0.0552 0.41926,-0.0564 0.70797,-0.0553 z"
       sodipodi:nodetypes="ssccssscssssssccsssssccss" />
    <path
       id="path47575"
       style="fill:#f01c25;fill-opacity:1;stroke:#000000;stroke-width:0.529167;stroke-linecap:round;stroke-linejoin:round;stroke-miterlimit:4;stroke-dasharray:none;stroke-opacity:1"
       d="m 19.214748,15.680153 c -0.14524,0.002 -0.30074,0.009 -0.46767,0.0217 -1.78065,0.13062 -4.9169,1.58442 -6.88589,2.50166 l 0.0718,16.04398 c 0,0 0.10621,0.47724 0.71159,0.48524 0.60538,0.008 7.10083,-3.9926 8.11733,-5.33611 1.0165,-1.34351 1.33093,-2.49014 0.64286,-3.78065 -0.68807,-1.2905 -2.09883,-0.99794 -3.41995,-0.7276 0,0 1.57716,-1.39166 2.40347,-3.05769 0.82632,-1.66603 1.35115,-3.65781 0.99115,-4.73822 -0.32625,-0.97912 -0.7608,-1.43303 -2.16472,-1.41231 z m -1.78801,4.19819 c 0.20195,-0.003 0.35819,0.0818 0.48886,0.33745 0.23231,0.45442 -0.1422,1.66203 -0.70796,2.43602 -0.56577,0.77399 -1.69137,1.84588 -1.69137,1.84588 l 0.0108,-3.50624 c 0.42782,-0.62117 0.82996,-0.82455 1.33636,-0.98495 0.22155,-0.0702 0.4062,-0.1257 0.56327,-0.12816 z m -0.19172,6.65075 c 0.42195,0.002 0.89188,0.087 1.12758,0.43977 0.39699,0.59412 -0.14647,1.07858 -0.7338,1.66398 -0.58734,0.5854 -1.60908,1.12201 -2.4474,1.63556 l 0.003,-3.13262 c 0,0 0.96608,-0.50295 1.34255,-0.55139 0.4289,-0.0552 0.41926,-0.0564 0.70797,-0.0553 z"
       sodipodi:nodetypes="ssccssscssssssccsssssccss" />
    <path
       id="path56299-9"
       style="fill:#000000;fill-opacity:1;stroke:#000000;stroke-width:0.529167;stroke-linecap:butt;stroke-linejoin:miter;stroke-miterlimit:4;stroke-dasharray:none;stroke-opacity:1;filter:url(#filter64041)"
       d="m 29.883678,14.241993 c -1.77154,-0.0714 -3.15347,1.27428 -4.15075,2.59068 -2.44409,3.10072 -3.93479,7.16875 -3.28121,11.13654 0.29561,1.60979 0.9006,3.19375 1.87438,4.51548 0.70582,0.9469 1.97111,1.51681 3.12667,1.09645 1.57266,-0.5111 2.84688,-1.68952 3.8761,-2.94652 2.23495,-2.91498 2.78973,-6.70567 2.86377,-10.28129 0.006,-1.90873 -0.40163,-4.02006 -1.89187,-5.34319 -0.68273,-0.52976 -1.55726,-0.78836 -2.41709,-0.76815 z m 1.83175,8.02462 c 0.52225,2.50713 -0.35029,5.23446 -2.13351,7.05221 -1.06465,0.98133 -3.10974,0.47152 -3.39691,-1.00844 -0.50607,-1.88739 0.13434,-3.84305 0.81366,-5.5999 0.53793,-1.14547 1.37961,-2.62484 2.63702,-2.72233 1.25741,-0.0975 1.88089,1.35473 2.07974,2.27846 z"
       sodipodi:nodetypes="ccccccccccccczc" />
    <path
       id="path56299"
       style="fill:#ed1c24;fill-opacity:1;stroke:#000000;stroke-width:0.529167;stroke-linecap:butt;stroke-linejoin:miter;stroke-miterlimit:4;stroke-dasharray:none;stroke-opacity:1"
       d="m 29.486848,13.845173 c -1.77154,-0.0714 -3.15347,1.27428 -4.15075,2.59068 -2.44409,3.10072 -3.93479,7.16875 -3.28121,11.13654 0.29561,1.60979 0.9006,3.19375 1.87438,4.51548 0.70582,0.9469 1.97111,1.51681 3.12667,1.09645 1.57266,-0.5111 2.84688,-1.68952 3.8761,-2.94652 2.23495,-2.91499 2.78973,-6.70567 2.86377,-10.2813 0.006,-1.90872 -0.40163,-4.02005 -1.89187,-5.34318 -0.68273,-0.52977 -1.55726,-0.78836 -2.41709,-0.76815 z m 1.83175,8.02462 c 0.52225,2.50713 -0.35029,5.23446 -2.13351,7.05221 -1.06465,0.98133 -3.10974,0.47152 -3.39691,-1.00844 -0.50607,-1.88739 0.13434,-3.84305 0.81366,-5.5999 0.53793,-1.14547 1.37961,-2.62484 2.63702,-2.72233 1.25741,-0.0975 1.88089,1.35473 2.07974,2.27846 z"
       sodipodi:nodetypes="ccccccccccccczc" />
    <path
       id="path56299-9-0"
       style="fill:#000000;fill-opacity:1;stroke:#000000;stroke-width:0.529167;stroke-linecap:butt;stroke-linejoin:miter;stroke-miterlimit:4;stroke-dasharray:none;stroke-opacity:1;filter:url(#filter64041-4)"
       d="m 42.363278,12.566983 c -1.77154,-0.0714 -3.15347,1.27428 -4.15075,2.59068 -2.44409,3.10072 -3.93479,7.16875 -3.28121,11.13654 0.29561,1.60979 0.9006,3.19375 1.87438,4.51548 0.70582,0.9469 1.97111,1.51681 3.12667,1.09645 1.57266,-0.5111 2.84688,-1.68952 3.8761,-2.94652 2.23495,-2.91498 2.78973,-6.70567 2.86377,-10.28129 0.006,-1.90873 -0.40163,-4.02006 -1.89187,-5.34319 -0.68273,-0.52976 -1.55726,-0.78836 -2.41709,-0.76815 z m 1.83175,8.02462 c 0.52225,2.50713 -0.35029,5.23446 -2.13351,7.05221 -1.06465,0.98133 -3.10974,0.47152 -3.39691,-1.00844 -0.50607,-1.88739 0.13434,-3.84305 0.81366,-5.5999 0.53793,-1.14547 1.37961,-2.62484 2.63702,-2.72233 1.25741,-0.0975 1.88089,1.35473 2.07974,2.27846 z"
       sodipodi:nodetypes="ccccccccccccczc" />
    <path
       id="path56299-91"
       style="fill:#ed1c24;fill-opacity:1;stroke:#000000;stroke-width:0.529167;stroke-linecap:butt;stroke-linejoin:miter;stroke-miterlimit:4;stroke-dasharray:none;stroke-opacity:1"
       d="m 41.834098,12.170163 c -1.77154,-0.0714 -3.15347,1.27428 -4.15075,2.59068 -2.44409,3.10072 -3.93479,7.16875 -3.28121,11.13654 0.29561,1.60979 0.9006,3.19375 1.87438,4.51548 0.70582,0.9469 1.97111,1.51681 3.12667,1.09645 1.57266,-0.5111 2.84688,-1.68952 3.8761,-2.94652 2.23495,-2.91499 2.78973,-6.70567 2.86377,-10.2813 0.006,-1.90872 -0.40163,-4.02005 -1.89187,-5.34318 -0.68273,-0.52977 -1.55726,-0.78836 -2.41709,-0.76815 z m 1.83175,8.02462 c 0.52225,2.50713 -0.35029,5.23446 -2.13351,7.05221 -1.06465,0.98133 -3.10974,0.47152 -3.39691,-1.00844 -0.50607,-1.88739 0.13434,-3.84305 0.81366,-5.5999 0.53793,-1.14547 1.37961,-2.62484 2.63702,-2.72233 1.25741,-0.0975 1.88089,1.35473 2.07974,2.27846 z"
       sodipodi:nodetypes="ccccccccccccczc" />
    <path
       style="fill:#000000;fill-opacity:1;stroke:#000000;stroke-width:1.05833;stroke-linecap:round;stroke-linejoin:round;stroke-miterlimit:4;stroke-dasharray:none;stroke-opacity:1;paint-order:markers stroke fill;filter:url(#filter66798)"
       d="m 50.803588,28.548383 -4.4593,1.41676 c 1.4068,-5.4252 1.93302,-11.03185 2.58992,-16.58444 1.79183,-0.38656 3.49698,-1.02214 5.21419,-1.64642 0.10579,2.822 0.22811,5.64331 0.34806,8.46473 0.83175,-2.80989 1.22693,-5.68292 1.62603,-8.57437 l 4.97617,-1.29121 c 0.26772,5.43481 0.74443,10.84879 1.28655,16.26171 l -4.50436,1.5756 c -0.35172,-3.62817 -0.52752,-7.27054 -0.75663,-10.90793 -0.75503,4.05356 -1.2641,8.13115 -1.69712,12.22744 l -2.42057,0.63252 c 0.0927,-4.9995 -0.0722,-9.9793 -0.48631,-14.95927 -0.629,4.45432 -1.16529,8.92052 -1.71663,13.38488 z"
       id="path64219-7"
       sodipodi:nodetypes="cccccccccccccc" />
    <path
       style="fill:#ed1c24;fill-opacity:1;stroke:#000000;stroke-width:1.05833;stroke-linecap:round;stroke-linejoin:round;stroke-miterlimit:4;stroke-dasharray:none;stroke-opacity:1;paint-order:markers stroke fill"
       d="m 50.300768,28.442673 -4.4593,1.41676 c 1.4068,-5.4252 1.93302,-11.03185 2.58992,-16.58444 1.79183,-0.38656 3.49698,-1.02214 5.21419,-1.64642 0.10579,2.822 0.22811,5.64331 0.34806,8.46473 0.83175,-2.80989 1.22693,-5.68292 1.62603,-8.57437 l 4.97617,-1.29121 c 0.26772,5.43481 0.74443,10.84879 1.28655,16.26171 l -4.50436,1.5756 c -0.35172,-3.62817 -0.52752,-7.27054 -0.75663,-10.90793 -0.75503,4.05356 -1.2641,8.13115 -1.69712,12.22744 l -2.42057,0.63252 c 0.0927,-4.9995 -0.0722,-9.9793 -0.48631,-14.95927 -0.629,4.45432 -1.16529,8.92052 -1.71663,13.38488 z"
       id="path64219"
       sodipodi:nodetypes="cccccccccccccc" />
    <path
       style="fill:#000000;fill-opacity:1;stroke:#000000;stroke-width:0.529167;stroke-linecap:butt;stroke-linejoin:miter;stroke-miterlimit:4;stroke-dasharray:none;stroke-opacity:1;filter:url(#filter69433)"
       d="m 64.481938,24.848813 c 0.67165,-0.48506 1.49423,-0.8791 2.3436,-0.76009 0.47553,0.0473 0.94892,0.3546 1.07442,0.83432 0.16036,0.71134 -0.17084,1.43212 -0.62128,1.96887 -0.49187,0.5795 -1.14506,1.0468 -1.88609,1.24126 -0.55754,0.14964 -1.20575,0.0875 -1.65279,-0.30493 -0.45934,-0.39801 -0.55519,-1.08886 -0.38695,-1.64918 0.14301,-0.5057 0.50163,-0.92455 0.94036,-1.20304 0.0624,-0.0432 0.12557,-0.0852 0.18873,-0.12721 z"
       id="path66835-7" />
    <path
       style="fill:#ed1c24;fill-opacity:1;stroke:#000000;stroke-width:0.529167;stroke-linecap:butt;stroke-linejoin:miter;stroke-miterlimit:4;stroke-dasharray:none;stroke-opacity:1"
       d="m 64.217368,24.663573 c 0.40873,-0.30788 1.98103,-1.07405 2.95747,-0.5511 0.79054,0.54581 0.52534,1.69571 0.0211,2.34876 -0.67681,0.96691 -1.88155,1.74819 -3.0974,1.50592 -1.00091,-0.21301 -1.36577,-1.45505 -0.88579,-2.28719 0.32695,-0.34645 0.62495,-0.72868 1.00462,-1.01639 z"
       id="path66835"
       sodipodi:nodetypes="cccccc" />
    <path
       style="fill:#ed1c24;fill-opacity:1;stroke:#000000;stroke-width:0.529167;stroke-linecap:round;stroke-linejoin:round;stroke-miterlimit:4;stroke-dasharray:none;stroke-opacity:1"
       d="m 64.744918,20.660713 2.88503,-0.0419 c 0.4556,-2.58849 1.45049,-6.40507 1.84737,-7.47316 0.51916,-1.33824 1.12743,-2.63954 1.70801,-3.9518803 -1.53361,-0.31443 -3.12425,-0.30094 -4.65577,0.005 -0.38829,2.2756403 -0.81121,4.2737203 -1.1477,6.4903903 -0.25492,1.60625 -0.4732,3.11981 -0.63694,4.97107 z"
       id="path69578"
       sodipodi:nodetypes="ccccccc" />
  </g>
</svg>
