<?xml version="1.0" encoding="UTF-8" standalone="no"?>
<!-- Created with Inkscape (http://www.inkscape.org/) -->

<svg
   width="400"
   height="1000"
   viewBox="0 0 105.83333 264.58332"
   version="1.1"
   id="svg1"
   xml:space="preserve"
   inkscape:version="1.1.2 (0a00cf5339, 2022-02-04)"
   sodipodi:docname="rocket.svg"
   xmlns:inkscape="http://www.inkscape.org/namespaces/inkscape"
   xmlns:sodipodi="http://sodipodi.sourceforge.net/DTD/sodipodi-0.dtd"
   xmlns="http://www.w3.org/2000/svg"
   xmlns:svg="http://www.w3.org/2000/svg"><sodipodi:namedview
     id="namedview1"
     pagecolor="#ffffff"
     bordercolor="#000000"
     borderopacity="0.25"
     inkscape:showpageshadow="2"
     inkscape:pageopacity="0.0"
     inkscape:pagecheckerboard="0"
     inkscape:deskcolor="#d1d1d1"
     inkscape:document-units="mm"
     showguides="false"
     inkscape:zoom="0.87452142"
     inkscape:cx="261.28577"
     inkscape:cy="846.74884"
     inkscape:window-width="1850"
     inkscape:window-height="1016"
     inkscape:window-x="0"
     inkscape:window-y="0"
     inkscape:window-maximized="1"
     inkscape:current-layer="layer1"
     inkscape:pageshadow="2"
     showgrid="false"
     fit-margin-top="0"
     fit-margin-left="0"
     fit-margin-right="0"
     fit-margin-bottom="0"
     units="px" /><defs
     id="defs1" /><g
     inkscape:label="Layer 1"
     inkscape:groupmode="layer"
     id="layer1"
     transform="translate(1.718158e-5)"><path
       id="path21925-4"
       style="fill:none;fill-opacity:1;stroke:#000000;stroke-width:19.8438;stroke-linecap:round;stroke-linejoin:round;stroke-miterlimit:4;stroke-dasharray:none;stroke-opacity:1"
       d="M 52.916674,9.9199779 C 42.864483,37.691853 34.39584,63.987097 34.39584,81.357477 c 0,17.370385 5.291667,34.395833 5.291667,34.395833 V 201.7429 L 9.9218826,228.20123 v 26.45833 L 43.656257,244.07623 H 62.17709 l 33.734375,10.58333 V 228.20123 L 66.14584,201.7429 v -85.98959 c 0,0 5.291667,-17.025448 5.291667,-34.395833 0,-17.37038 -8.468643,-43.665621 -18.520833,-71.4374991 z"
       sodipodi:nodetypes="csccccccccccsc" /><path
       style="fill:#62590c;fill-opacity:1;stroke:none;stroke-width:0.264583px;stroke-linecap:butt;stroke-linejoin:miter;stroke-opacity:1"
       d="m 9.9217928,228.20124 v 26.45833 L 43.656257,244.07623 h 18.520839 l 33.73428,10.58334 V 228.20124 L 66.145846,201.7429 H 39.687507 Z"
       id="path21925"
       sodipodi:nodetypes="ccccccccc" /><rect
       style="fill:#817618;fill-opacity:1;stroke-width:0.352777;stroke-linecap:round;stroke-linejoin:round;paint-order:markers fill stroke"
       id="rect15351"
       width="26.458336"
       height="85.989586"
       x="39.687508"
       y="115.75333" /><rect
       style="fill:#afb228;fill-opacity:1;stroke:none;stroke-width:24.7119"
       id="rect2-0"
       width="13.229167"
       height="72.760414"
       x="39.687508"
       y="115.75333" /><rect
       style="fill:#827712;fill-opacity:1;stroke:none;stroke-width:14.9019"
       id="rect2-0-3"
       width="26.458334"
       height="13.229167"
       x="39.687504"
       y="115.75333" /><rect
       style="fill:#3b3104;fill-opacity:1;stroke:none;stroke-width:10.5372"
       id="rect2-2-9-6"
       width="13.229167"
       height="13.229167"
       x="52.916672"
       y="115.75333" /><rect
       style="fill:#827712;fill-opacity:1;stroke:none;stroke-width:14.9019"
       id="rect2-0-3-0"
       width="26.458334"
       height="13.229167"
       x="39.687508"
       y="188.51373" /><rect
       style="fill:#3b3104;fill-opacity:1;stroke:none;stroke-width:10.5372"
       id="rect2-2-9-6-6"
       width="13.229167"
       height="13.229167"
       x="52.916676"
       y="188.51373" /><path
       id="path1-2-2"
       style="fill:#afb228;fill-opacity:1;stroke:none;stroke-width:8.55332"
       d="M 52.916674,9.9199779 C 42.864481,37.691853 34.395777,63.987097 34.395777,81.357477 c 0,17.370382 5.291731,34.395833 5.291731,34.395833 h 13.229166 13.229167 c 0,0 5.291602,-17.025454 5.291602,-34.395833 0,-17.370391 -8.468576,-43.665623 -18.520769,-71.4374991 z"
       sodipodi:nodetypes="cscccsc" /><path
       id="path1-2"
       style="fill:#817618;fill-opacity:1;stroke:none;stroke-width:8.55332"
       d="M 52.916674,9.9199779 C 62.968866,37.691854 71.437443,63.987097 71.437443,81.357478 c 0,17.370381 -5.291603,34.395842 -5.291603,34.395842 H 52.916674 Z"
       sodipodi:nodetypes="czccc" /><path
       style="fill:#afb228;fill-opacity:1;stroke:none;stroke-width:8.55353"
       d="M 39.687508,201.7429 H 66.14584 l -3.968744,42.33333 H 43.656258 Z"
       id="path2-2"
       sodipodi:nodetypes="ccccc" /><path
       style="fill:#817618;fill-opacity:1;stroke:none;stroke-width:8.55353"
       d="M 66.14584,201.7429 H 52.916674 v 42.33333 h 9.260416 z"
       id="path2-2-6"
       sodipodi:nodetypes="ccccc" /></g></svg>
