<?xml version="1.0" encoding="UTF-8" standalone="no"?>
<!-- Created with Inkscape (http://www.inkscape.org/) -->

<svg
   width="595"
   height="730"
   viewBox="0 0 157.42708 193.14584"
   version="1.1"
   id="svg5"
   inkscape:version="1.1.2 (0a00cf5339, 2022-02-04)"
   sodipodi:docname="globe.svg"
   xmlns:inkscape="http://www.inkscape.org/namespaces/inkscape"
   xmlns:sodipodi="http://sodipodi.sourceforge.net/DTD/sodipodi-0.dtd"
   xmlns="http://www.w3.org/2000/svg"
   xmlns:svg="http://www.w3.org/2000/svg">
  <sodipodi:namedview
     id="namedview7"
     pagecolor="#ffffff"
     bordercolor="#666666"
     borderopacity="1.0"
     inkscape:pageshadow="2"
     inkscape:pageopacity="0.0"
     inkscape:pagecheckerboard="0"
     inkscape:document-units="mm"
     showgrid="false"
     showguides="false"
     inkscape:zoom="1.1054795"
     inkscape:cx="297.15613"
     inkscape:cy="365"
     inkscape:window-width="1850"
     inkscape:window-height="1016"
     inkscape:window-x="0"
     inkscape:window-y="0"
     inkscape:window-maximized="1"
     inkscape:current-layer="layer1"
     units="px"
     height="1122.5196px" />
  <defs
     id="defs2">
    <clipPath
       clipPathUnits="userSpaceOnUse"
       id="clipPath1427">
      <path
         id="path1429"
         style="fill:#d35f5f;stroke-width:0.905378;stroke-linecap:round;stroke-linejoin:round;paint-order:markers stroke fill"
         d="m 121.80496,125.49983 a 62,62 0 0 0 -61.999824,62.00035 62,62 0 0 0 61.999824,61.99983 62,62 0 0 0 47.98726,-22.77897 l -1.41594,-8.68836 1.51412,-51.41546 -0.44028,-16.42587 -10.13013,-10.83655 1.31258,-0.18604 a 62,62 0 0 0 -38.82761,-13.66893 z" />
    </clipPath>
    <clipPath
       clipPathUnits="userSpaceOnUse"
       id="clipPath31560">
      <path
         id="path31562"
         style="fill:#d2b344;fill-opacity:1;stroke:none;stroke-width:10.5833;stroke-linecap:round;stroke-linejoin:round;stroke-miterlimit:4;stroke-dasharray:none;stroke-opacity:1;paint-order:markers stroke fill"
         d="m -181.81009,186.046 v 190.5 h 152.929166 v -94.49657 a 68.840683,68.840683 0 0 1 -64.751088,45.48301 68.840683,68.840683 0 0 1 -3.902604,-0.14623 v 0.91673 h -22.478214 -6.89363 v -6.90552 h -7.922 v -4.35838 h -10.55801 v -8.88214 h -4.77232 v -2.83758 h -4.62763 v -8.49042 h -4.5837 v -15.38407 h -5.45341 v -38.09588 h 4.08347 a 68.840683,68.840683 0 0 1 67.108048,-53.49803 68.840683,68.840683 0 0 1 64.751088,45.48301 V 186.046 Z" />
    </clipPath>
    <clipPath
       clipPathUnits="userSpaceOnUse"
       id="clipPath31560-6">
      <path
         id="path31562-7"
         style="fill:#d2b344;fill-opacity:1;stroke:none;stroke-width:10.5833;stroke-linecap:round;stroke-linejoin:round;stroke-miterlimit:4;stroke-dasharray:none;stroke-opacity:1;paint-order:markers stroke fill"
         d="m -181.81009,186.046 v 190.5 h 152.929166 v -94.49657 a 68.840683,68.840683 0 0 1 -64.751088,45.48301 68.840683,68.840683 0 0 1 -3.902604,-0.14623 v 0.91673 h -22.478214 -6.89363 v -6.90552 h -7.922 v -4.35838 h -10.55801 v -8.88214 h -4.77232 v -2.83758 h -4.62763 v -8.49042 h -4.5837 v -15.38407 h -5.45341 v -38.09588 h 4.08347 a 68.840683,68.840683 0 0 1 67.108048,-53.49803 68.840683,68.840683 0 0 1 64.751088,45.48301 V 186.046 Z" />
    </clipPath>
  </defs>
  <g
     inkscape:label="Layer 1"
     inkscape:groupmode="layer"
     id="layer1">
    <circle
       style="fill:none;stroke:#d2b344;stroke-width:5.29166667;stroke-linecap:round;stroke-linejoin:round;stroke-miterlimit:4;stroke-dasharray:none;stroke-opacity:1;paint-order:markers stroke fill"
       id="path1550"
       cx="84.66703"
       cy="74.02874"
       r="64.822914" />
    <g
       id="g43562"
       transform="translate(-0.62502354,-0.54126864)">
      <path
         style="fill:#d2b344;fill-opacity:1;stroke:none;stroke-width:3.81868;stroke-linecap:round;stroke-linejoin:round;stroke-miterlimit:4;stroke-dasharray:none;stroke-opacity:1;paint-order:markers stroke fill"
         d="m 83.70089,11.889234 c -12.49987,0.21509 -24.935975,4.38781 -34.930788,11.91992 0.330335,7.15919 5.995264,-1.0529 7.745119,-3.49717 3.212601,-4.42869 8.855979,1.43245 3.839611,4.92972 -5.016369,3.49727 -9.60893,6.78435 -13.19921,11.17238 -1.354085,4.13758 2.89353,8.62073 -0.525432,12.37655 -3.654238,2.11316 -5.087518,7.10633 0.6679,7.02219 6.396127,2.07436 6.49067,-8.82775 12.472391,-5.66466 1.714326,1.56198 8.874759,1.39644 4.568679,-0.3242 -4.306077,-1.72064 -8.024062,-3.9502 -2.900135,-5.45942 1.857468,0.7296 7.892035,3.4323 3.978925,-0.13976 -2.747872,-4.90172 7.35231,-6.19353 3.84446,-0.92658 -2.08777,5.5856 7.25885,-3.35153 9.24865,-0.46618 -1.01038,6.15915 6.14166,4.34369 9.83991,5.85532 4.16846,0.59048 6.28523,4.98591 10.26279,5.80165 4.46534,0.79246 8.33271,-2.04879 10.98524,-5.36318 3.5564,-3.20211 2.23757,-7.65369 -1.91394,-9.09676 2.79068,-3.3434 10.64572,-1.77505 14.61399,0.478 2.77651,2.62262 9.12757,2.6032 6.85452,-2.69731 -2.27305,-5.3005 -9.38571,-9.050527 -7.41709,-12.52702 1.96862,-3.476493 -5.35557,-4.56773 -7.55255,-6.24552 -9.3199,-4.94667 -19.9271,-7.49699 -30.48304,-7.14797 z m 38.97153,17.4693 5e-5,-0.0118 z m 2.03724,12.36595 0.21749,-0.003 z m -1.07418,0.75142 -0.0655,0.24563 z m -63.033648,8.30972 -0.06206,0.0292 z m -8.160173,5.03159 0.03328,0.0651 z"
         id="path9419"
         sodipodi:nodetypes="ccczcczzzczzzzzczczzccccccccccccccccc" />
      <path
         style="fill:#d2b344;fill-opacity:1;stroke:#d2b344;stroke-width:1.05617;stroke-linecap:round;stroke-linejoin:round;stroke-miterlimit:4;stroke-dasharray:none;stroke-opacity:1;paint-order:markers stroke fill"
         d="m 41.304908,41.395074 c -1.260245,-0.50548 -0.93281,-2.27163 -0.167045,-3.08401 0.820896,-1.04 0.989741,-2.57372 0.04068,-3.59274 -0.93387,-1.00788 0.01555,-2.33927 1.043584,-2.7831 1.780986,-0.3807 1.225111,2.21652 1.429566,3.27517 0.30655,1.22866 1.387662,1.8555 1.736034,3.10967 0.189593,1.18535 -1.164185,1.73872 -1.992308,2.24742 -0.606758,0.5159 -1.221552,1.0187 -2.090507,0.82759 z"
         id="path16340" />
      <path
         style="fill:#d2b344;fill-opacity:1;stroke:#d2b344;stroke-width:0.604875;stroke-linecap:round;stroke-linejoin:round;stroke-miterlimit:4;stroke-dasharray:none;stroke-opacity:1;paint-order:markers stroke fill"
         d="m 37.86233,39.917514 c -0.432504,-0.11385 -0.688719,-0.54387 -0.771827,-0.95818 -0.0539,-0.28573 -0.05564,-0.57823 -0.08865,-0.86681 -0.0415,-0.50378 -0.02285,-1.06565 0.315851,-1.47355 0.351149,-0.43298 1.074561,-0.54407 1.498428,-0.155 0.357904,0.26699 0.497619,0.73044 0.491144,1.16123 0.006,0.20681 -0.01463,0.41966 -0.123051,0.60127 -0.165862,0.31438 -0.448657,0.59084 -0.464724,0.96515 -0.09698,0.38318 -0.442075,0.73688 -0.857171,0.72589 z"
         id="path16814" />
      <path
         style="fill:#d2b344;fill-opacity:1;stroke:none;stroke-width:0.264583px;stroke-linecap:butt;stroke-linejoin:miter;stroke-opacity:1"
         d="m 30.316364,108.01926 c 4.783546,0.7788 11.724411,2.77991 13.940268,3.61865 2.215857,0.83874 2.388705,1.51912 3.775163,3.72348 1.386458,2.20436 1.311889,3.30791 1.968592,5.81828 0.656703,2.51036 3.982511,7.73173 3.982511,7.73173 L 46.308939,126.87863 35.53296,115.39774 Z"
         id="path20640"
         sodipodi:nodetypes="czzzcccc" />
      <path
         style="fill:#d2b344;fill-opacity:1;stroke:none;stroke-width:6.84744;stroke-linecap:round;stroke-linejoin:round;stroke-miterlimit:4;stroke-dasharray:none;stroke-opacity:1;paint-order:markers stroke fill"
         d="m 103.23133,115.34619 c -7.56353,-1.2155 -12.5972,-7.73404 -16.29853,-13.89754 -2.21587,-3.247446 -3.5597,-7.849816 -7.85233,-8.888726 -5.40397,-1.334 -10.31563,2.1086 -15.42855,3.11335 -6.849107,0.75382 -12.321422,-4.92254 -15.28396,-10.48897 -3.020584,-5.57388 -5.069835,-13.9518 -0.489007,-18.50666 4.580828,-4.55486 12.499793,-2.92672 17.265357,-6.45918 4.76556,-3.53246 6.48685,-9.19009 12.24035,-10.07901 6.72709,-0.68531 12.33962,3.90804 17.0158,8.13338 2.60811,2.2241 5.14261,4.67415 8.20025,6.24241 3.97196,1.03207 6.57776,-3.01256 9.54719,-4.85924 3.61196,-3.26692 6.32651,1.97849 5.07944,5.25796 -0.97088,4.41847 -3.84784,8.3833 -3.66277,13.04094 -1.74249,10.01242 4.83514,19.50866 2.72027,29.496966 -1.59336,5.35986 -7.61659,8.80292 -13.05351,7.89432 z"
         id="path26136"
         sodipodi:nodetypes="ccccczzcccccccc" />
      <path
         style="fill:#d2b344;fill-opacity:1;stroke:none;stroke-width:1.96459;stroke-linecap:round;stroke-linejoin:round;stroke-miterlimit:4;stroke-dasharray:none;stroke-opacity:1;paint-order:markers stroke fill"
         d="m 122.09122,100.3992 c -1.46699,-1.264546 -2.62911,-3.199516 -2.28928,-5.198306 0.27213,-1.19303 0.97902,-2.24487 1.20478,-3.45586 0.19889,-0.92814 0.1477,-2.01889 -0.53426,-2.74289 -0.72115,-1.07212 -0.61878,-2.49821 -0.0452,-3.61046 0.42923,-1.01391 0.60674,-2.10703 0.76243,-3.18663 0.25963,-0.89378 1.55188,-1.44269 2.24211,-0.68777 1.69047,2.13785 1.97005,4.99024 1.91146,7.62277 0.008,1.82386 -0.26377,3.62738 -0.52592,5.42678 -0.17864,1.05382 -0.11232,2.12369 -0.2066,3.18304 -0.10789,1.08618 -0.65756,2.389026 -1.84568,2.616806 -0.22126,0.0448 -0.44929,0.0552 -0.67384,0.0325 z"
         id="path29232" />
    </g>
    <rect
       style="fill:#d2b344;fill-opacity:1;stroke:none;stroke-width:13.0929;stroke-linecap:round;stroke-linejoin:round;stroke-miterlimit:4;stroke-dasharray:none;stroke-opacity:1;paint-order:markers stroke fill"
       id="rect31749"
       width="10.322491"
       height="11.644625"
       x="24.864155"
       y="28.353937"
       ry="2.9102957"
       transform="rotate(-33.622525)" />
    <rect
       style="fill:#d2b344;fill-opacity:1;stroke:none;stroke-width:13.0929;stroke-linecap:round;stroke-linejoin:round;stroke-miterlimit:4;stroke-dasharray:none;stroke-opacity:1;paint-order:markers stroke fill"
       id="rect31749-2"
       width="10.322491"
       height="11.644625"
       x="26.461647"
       y="177.80948"
       ry="2.9102957"
       transform="rotate(-33.622525)" />
    <path
       style="fill:none;fill-opacity:1;stroke:#d2b344;stroke-width:10.5833;stroke-linecap:round;stroke-linejoin:round;stroke-miterlimit:4;stroke-dasharray:none;stroke-opacity:1;paint-order:markers stroke fill"
       id="path32302"
       d="M 135.68833,134.8372 A 79.375,79.375 0 0 1 53.228237,146.91582 79.375,79.375 0 0 1 5.4263584,78.647663 79.375,79.375 0 0 1 44.979568,5.2916511"
       sodipodi:type="arc"
       sodipodi:arc-type="arc"
       sodipodi:start="0.87266463"
       sodipodi:end="4.1887902"
       sodipodi:ry="79.375"
       sodipodi:rx="79.375"
       sodipodi:cy="74.032417"
       sodipodi:cx="84.667068"
       sodipodi:open="true" />
    <rect
       style="fill:#d2b344;fill-opacity:1;stroke:none;stroke-width:11.9619;stroke-linecap:round;stroke-linejoin:round;stroke-miterlimit:4;stroke-dasharray:none;stroke-opacity:1;paint-order:markers stroke fill"
       id="rect42229"
       width="15.875"
       height="39.6875"
       x="76.729149"
       y="145.52083"
       ry="5.6348495"
       rx="6.2738428" />
    <rect
       style="fill:#d2b344;fill-opacity:1;stroke:none;stroke-width:11.4718;stroke-linecap:round;stroke-linejoin:round;stroke-miterlimit:4;stroke-dasharray:none;stroke-opacity:1;paint-order:markers stroke fill"
       id="rect42661"
       width="119.0625"
       height="21.166666"
       x="25.135401"
       y="169.33333"
       rx="4.9609375"
       ry="5.2916665" />
    <rect
       style="fill:#d2b344;fill-opacity:1;stroke:none;stroke-width:11.195;stroke-linecap:round;stroke-linejoin:round;stroke-miterlimit:4;stroke-dasharray:none;stroke-opacity:1;paint-order:markers stroke fill"
       id="rect42661-9"
       width="145.52083"
       height="15.875"
       x="11.906235"
       y="177.27083"
       rx="5"
       ry="5" />
  </g>
</svg>
