<?xml version="1.0" encoding="UTF-8" standalone="no"?>
<svg
   zoomAndPan="magnify"
   viewBox="0 0 400 399.99999"
   preserveAspectRatio="xMidYMid meet"
   version="1.0"
   id="svg610"
   sodipodi:docname="logo.svg"
   inkscape:version="1.1.2 (0a00cf5339, 2022-02-04)"
   width="400"
   height="400"
   xmlns:inkscape="http://www.inkscape.org/namespaces/inkscape"
   xmlns:sodipodi="http://sodipodi.sourceforge.net/DTD/sodipodi-0.dtd"
   xmlns="http://www.w3.org/2000/svg"
   xmlns:svg="http://www.w3.org/2000/svg">
  <sodipodi:namedview
     id="namedview612"
     pagecolor="#ffffff"
     bordercolor="#666666"
     borderopacity="1.0"
     inkscape:pageshadow="2"
     inkscape:pageopacity="0.0"
     inkscape:pagecheckerboard="0"
     showgrid="false"
     inkscape:zoom="1.1159792"
     inkscape:cx="205.64899"
     inkscape:cy="166.22174"
     inkscape:window-width="1850"
     inkscape:window-height="1016"
     inkscape:window-x="0"
     inkscape:window-y="0"
     inkscape:window-maximized="1"
     inkscape:current-layer="svg610" />
  <defs
     id="defs64">
    <g
       id="g2" />
    <clipPath
       id="a9c0657c54">
      <path
         d="M 54.210938,32.007812 H 320.78906 V 298.58594 H 54.210938 Z m 0,0"
         clip-rule="nonzero"
         id="path4" />
    </clipPath>
    <clipPath
       id="8dfdf24f21">
      <path
         d="m 187.5,32.007812 c -73.61328,0 -133.289062,59.675782 -133.289062,133.289058 0,73.61329 59.675782,133.28907 133.289062,133.28907 73.61328,0 133.28906,-59.67578 133.28906,-133.28907 0,-73.613276 -59.67578,-133.289058 -133.28906,-133.289058 z m 0,0"
         clip-rule="nonzero"
         id="path7" />
    </clipPath>
    <clipPath
       id="d185b55de7">
      <path
         d="M 60.433594,38.234375 H 314.56641 V 292.36328 H 60.433594 Z m 0,0"
         clip-rule="nonzero"
         id="path10" />
    </clipPath>
    <clipPath
       id="e89162aadf">
      <path
         d="m 187.5,38.234375 c -70.17578,0 -127.066406,56.886719 -127.066406,127.062495 0,70.17579 56.890626,127.06641 127.066406,127.06641 70.17578,0 127.06641,-56.89062 127.06641,-127.06641 0,-70.175776 -56.89063,-127.062495 -127.06641,-127.062495 z m 0,0"
         clip-rule="nonzero"
         id="path13" />
    </clipPath>
    <clipPath
       id="cce8ee2b3e">
      <path
         d="M 63.601562,41.402344 H 311.39844 V 289.19531 H 63.601562 Z m 0,0"
         clip-rule="nonzero"
         id="path16" />
    </clipPath>
    <clipPath
       id="223a1785f7">
      <path
         d="m 187.5,41.402344 c -68.42578,0 -123.898438,55.46875 -123.898438,123.894526 0,68.42969 55.472658,123.89844 123.898438,123.89844 68.42578,0 123.89844,-55.46875 123.89844,-123.89844 0,-68.425776 -55.47266,-123.894526 -123.89844,-123.894526 z m 0,0"
         clip-rule="nonzero"
         id="path19" />
    </clipPath>
    <clipPath
       id="ca3bec257a">
      <path
         d="M 105.89063,83.691406 H 269.10937 V 246.90625 H 105.89063 Z m 0,0"
         clip-rule="nonzero"
         id="path22" />
    </clipPath>
    <clipPath
       id="e30fab109a">
      <path
         d="m 187.5,83.691406 c -45.07031,0 -81.60937,36.535154 -81.60937,81.605464 0,45.07422 36.53906,81.60938 81.60937,81.60938 45.07031,0 81.60937,-36.53516 81.60937,-81.60938 0,-45.07031 -36.53906,-81.605464 -81.60937,-81.605464 z m 0,0"
         clip-rule="nonzero"
         id="path25" />
    </clipPath>
    <clipPath
       id="326845ba8a">
      <path
         d="M 109.09766,86.894531 H 265.90234 V 243.69922 H 109.09766 Z m 0,0"
         clip-rule="nonzero"
         id="path28" />
    </clipPath>
    <clipPath
       id="d4844bcd00">
      <path
         d="m 187.5,86.894531 c -43.30078,0 -78.40234,35.105469 -78.40234,78.402339 0,43.30079 35.10156,78.40235 78.40234,78.40235 43.30078,0 78.40234,-35.10156 78.40234,-78.40235 C 265.90234,122 230.80078,86.894531 187.5,86.894531 Z m 0,0"
         clip-rule="nonzero"
         id="path31" />
    </clipPath>
    <clipPath
       id="76c0a1ec7e">
      <path
         d="m 114.1875,91.988281 h 146.625 V 238.60937 h -146.625 z m 0,0"
         clip-rule="nonzero"
         id="path34" />
    </clipPath>
    <clipPath
       id="9511e65ac9">
      <path
         d="m 187.5,91.988281 c -40.48828,0 -73.3125,32.820309 -73.3125,73.308589 0,40.48829 32.82422,73.3125 73.3125,73.3125 40.48828,0 73.3125,-32.82421 73.3125,-73.3125 0,-40.48828 -32.82422,-73.308589 -73.3125,-73.308589 z m 0,0"
         clip-rule="nonzero"
         id="path37" />
    </clipPath>
    <clipPath
       id="fdb249a1a9">
      <path
         d="m 125.35938,104.56641 h 124.20703 v 138.4414 H 125.35938 Z m 0,0"
         clip-rule="nonzero"
         id="path40" />
    </clipPath>
    <clipPath
       id="81e5874187">
      <path
         d="M 130.16406,108.98438 H 244.76562 V 236.72266 H 130.16406 Z m 0,0"
         clip-rule="nonzero"
         id="path43" />
    </clipPath>
    <clipPath
       id="53977ed07d">
      <path
         d="m 133.78906,112.20703 h 107.25 v 119.65625 h -107.25 z m 0,0"
         clip-rule="nonzero"
         id="path46" />
    </clipPath>
    <clipPath
       id="fad17aab44">
      <path
         d="M 70.921875,149.24219 H 103 v 32.25 H 70.921875 Z m 0,0"
         clip-rule="nonzero"
         id="path49" />
    </clipPath>
    <clipPath
       id="016eabd7e2">
      <path
         d="m 275.10937,148.94531 h 32.25 v 32.25 h -32.25 z m 0,0"
         clip-rule="nonzero"
         id="path52" />
    </clipPath>
    <clipPath
       id="b78e52c74b">
      <path
         d="m 142.42187,114.69922 h 93 v 101.25 h -93 z m 0,0"
         clip-rule="nonzero"
         id="path55" />
    </clipPath>
    <clipPath
       id="d5f4ab9400">
      <path
         d="m 105.89063,228.88281 h 29.99999 v 28.5 h -29.99999 z m 0,0"
         clip-rule="nonzero"
         id="path58" />
    </clipPath>
    <clipPath
       id="c0af6f10f6">
      <path
         d="m 241.21094,228.88281 h 30 v 28.5 h -30 z m 0,0"
         clip-rule="nonzero"
         id="path61" />
    </clipPath>
  </defs>
  <g
     fill="#d2b344"
     fill-opacity="1"
     id="g90">
    <g
       transform="translate(98.079732,325.86045)"
       id="g88">
      <g
         id="g86" />
    </g>
  </g>
  <g
     fill="#d2b344"
     fill-opacity="1"
     id="g136">
    <g
       transform="translate(147.84381,325.86045)"
       id="g134">
      <g
         id="g132" />
    </g>
  </g>
  <g
     fill="#d2b344"
     fill-opacity="1"
     id="g182">
    <g
       transform="translate(199.68389,325.86045)"
       id="g180">
      <g
         id="g178" />
    </g>
  </g>
  <g
     fill="#d2b344"
     fill-opacity="1"
     id="g268">
    <g
       transform="translate(291.97673,325.86045)"
       id="g266">
      <g
         id="g264" />
    </g>
  </g>
  <g
     fill="#d2b344"
     fill-opacity="1"
     id="g314">
    <g
       transform="translate(162.02674,342.36045)"
       id="g312">
      <g
         id="g310" />
    </g>
  </g>
  <g
     fill="#d2b344"
     fill-opacity="1"
     id="g344">
    <g
       transform="translate(193.46679,342.36045)"
       id="g342">
      <g
         id="g340" />
    </g>
  </g>
  <g
     clip-path="url(#a9c0657c54)"
     id="g406"
     transform="matrix(1.5004982,0,0,1.5004982,-81.343415,-48.027668)">
    <g
       clip-path="url(#8dfdf24f21)"
       id="g404">
      <path
         fill="#1a1917"
         d="M 54.210938,32.007812 H 320.78906 V 298.58594 H 54.210938 Z m 0,0"
         fill-opacity="1"
         fill-rule="nonzero"
         id="path402" />
    </g>
  </g>
  <g
     clip-path="url(#d185b55de7)"
     id="g412"
     transform="matrix(1.5004982,0,0,1.5004982,-81.343415,-48.027668)">
    <g
       clip-path="url(#e89162aadf)"
       id="g410">
      <path
         fill="#d2b344"
         d="M 60.433594,38.234375 H 314.56641 V 292.36328 H 60.433594 Z m 0,0"
         fill-opacity="1"
         fill-rule="nonzero"
         id="path408" />
    </g>
  </g>
  <g
     clip-path="url(#cce8ee2b3e)"
     id="g418"
     transform="matrix(1.5004982,0,0,1.5004982,-81.343415,-48.027668)">
    <g
       clip-path="url(#223a1785f7)"
       id="g416">
      <path
         fill="#1a1917"
         d="M 63.601562,41.402344 H 311.39844 V 289.19531 H 63.601562 Z m 0,0"
         fill-opacity="1"
         fill-rule="nonzero"
         id="path414" />
    </g>
  </g>
  <g
     clip-path="url(#ca3bec257a)"
     id="g424"
     transform="matrix(1.5004982,0,0,1.5004982,-81.343415,-48.027668)">
    <g
       clip-path="url(#e30fab109a)"
       id="g422">
      <path
         fill="#d2b344"
         d="M 105.89063,83.691406 H 269.10937 V 246.90625 H 105.89063 Z m 0,0"
         fill-opacity="1"
         fill-rule="nonzero"
         id="path420" />
    </g>
  </g>
  <g
     clip-path="url(#326845ba8a)"
     id="g430"
     transform="matrix(1.5004982,0,0,1.5004982,-81.343415,-48.027668)">
    <g
       clip-path="url(#d4844bcd00)"
       id="g428">
      <path
         fill="#1a1917"
         d="M 109.09766,86.894531 H 265.90234 V 243.69922 H 109.09766 Z m 0,0"
         fill-opacity="1"
         fill-rule="nonzero"
         id="path426" />
    </g>
  </g>
  <g
     clip-path="url(#76c0a1ec7e)"
     id="g436"
     transform="matrix(1.5004982,0,0,1.5004982,-81.343415,-48.027668)">
    <g
       clip-path="url(#9511e65ac9)"
       id="g434">
      <path
         fill="#a72326"
         d="m 114.1875,91.988281 h 146.625 V 238.60937 h -146.625 z m 0,0"
         fill-opacity="1"
         fill-rule="nonzero"
         id="path432" />
    </g>
  </g>
  <g
     clip-path="url(#fdb249a1a9)"
     id="g440"
     transform="matrix(1.5004982,0,0,1.5004982,-81.343415,-48.027668)">
    <path
       fill="#1a1917"
       d="m 242.61719,113.75781 c -35.75391,-12.26172 -74.57032,-12.26172 -110.31641,0 -4.46875,1.53125 -7.32031,5.91016 -6.90234,10.61719 l 2.50781,32 c 2.49609,32.41406 20,61.80078 47.31641,79.42578 l 10.28906,6.63281 c 1.18359,0.76563 2.70312,0.76563 3.88672,0 l 10.29297,-6.63281 c 27.32031,-17.625 44.82421,-47.01172 47.32031,-79.42578 l 2.50781,-32 c 0.41016,-4.70703 -2.43359,-9.08594 -6.90234,-10.61719"
       fill-opacity="1"
       fill-rule="nonzero"
       id="path438" />
  </g>
  <g
     clip-path="url(#81e5874187)"
     id="g444"
     transform="matrix(1.5004982,0,0,1.5004982,-81.343415,-48.027668)">
    <path
       fill="#d2b344"
       d="m 238.35547,117.46484 c -32.99219,-11.3125 -68.80469,-11.3125 -101.78906,0 -4.1211,1.41407 -6.75391,5.45704 -6.36719,9.80079 l 2.3164,29.52343 c 2.30079,29.90625 18.45313,57.01953 43.65235,73.28516 l 9.49609,6.12109 c 1.09375,0.70313 2.4961,0.70313 3.58594,0 l 9.49609,-6.12109 c 25.20703,-16.26563 41.35938,-43.37891 43.66016,-73.28516 l 2.31641,-29.52343 c 0.3789,-4.34375 -2.24219,-8.38672 -6.36719,-9.80079"
       fill-opacity="1"
       fill-rule="nonzero"
       id="path442" />
  </g>
  <g
     clip-path="url(#53977ed07d)"
     id="g448"
     transform="matrix(1.5004982,0,0,1.5004982,-81.343415,-48.027668)">
    <path
       fill="#1a1917"
       d="m 235.13672,120.14844 c -30.90235,-10.59375 -64.44922,-10.59375 -95.34766,0 -3.86328,1.32812 -6.32812,5.11328 -5.96484,9.17968 l 2.16797,27.66016 c 2.15625,28.01172 17.28906,53.41406 40.89453,68.64453 l 8.89453,5.73438 c 1.02344,0.66015 2.33594,0.66015 3.35937,0 l 8.89454,-5.73438 C 221.64844,210.40234 236.77734,185 238.93359,156.98828 l 2.16797,-27.66016 c 0.35938,-4.0664 -2.10156,-7.85156 -5.96484,-9.17968"
       fill-opacity="1"
       fill-rule="nonzero"
       id="path446" />
  </g>
  <g
     clip-path="url(#fad17aab44)"
     id="g452"
     transform="matrix(1.5004982,0,0,1.5004982,-81.343415,-48.027668)">
    <path
       fill="#d2b344"
       d="m 101.23438,167.24219 c -0.3086,-0.3125 -0.65625,-0.58203 -1.04297,-0.79688 -0.382816,-0.21875 -0.789066,-0.38281 -1.218754,-0.48828 -0.429687,-0.10547 -0.863281,-0.14844 -1.304687,-0.13672 -0.441407,0.0156 -0.875,0.0898 -1.296875,0.22266 l -0.390625,-0.38672 0.195312,-0.19531 c 0.144531,-0.14453 0.257813,-0.3125 0.335938,-0.5 0.07813,-0.1875 0.117187,-0.38672 0.117187,-0.58985 0,-0.20312 -0.03906,-0.40234 -0.117187,-0.58984 -0.07813,-0.19141 -0.191407,-0.35547 -0.335938,-0.5 l -1.136719,-1.13672 c 0.02734,-0.11719 0.04297,-0.23047 0.04297,-0.34766 0,-0.42578 -0.152343,-0.78906 -0.453125,-1.08984 l -1.136718,-1.13672 c 0.02734,-0.11328 0.03906,-0.23047 0.03906,-0.34375 0,-0.42578 -0.152344,-0.79297 -0.453125,-1.09375 l -0.601563,-0.60156 c -0.402343,-0.40234 -0.882812,-0.53906 -1.441406,-0.41016 l -1.140625,-1.13281 c -0.144531,-0.14453 -0.3125,-0.25781 -0.5,-0.33594 -0.191406,-0.0781 -0.390625,-0.11718 -0.59375,-0.11718 -0.207031,0 -0.402343,0.0391 -0.59375,0.11718 -0.1875,0.0781 -0.355469,0.19141 -0.5,0.33594 l -0.710937,0.70313 -0.835938,-0.83204 c 0.128906,-0.43359 0.199219,-0.8789 0.207032,-1.33593 0.0078,-0.45313 -0.05078,-0.89844 -0.167969,-1.33985 -0.117188,-0.4375 -0.296875,-0.85156 -0.53125,-1.24218 -0.234375,-0.38672 -0.515625,-0.73829 -0.851563,-1.04688 -0.332031,-0.3125 -0.699218,-0.57031 -1.105468,-0.77344 -0.40625,-0.20703 -0.832032,-0.35156 -1.277344,-0.4375 -0.449219,-0.0898 -0.898438,-0.11328 -1.351563,-0.0703 -0.453125,0.0391 -0.890625,0.14063 -1.316406,0.30469 -0.171875,0.0664 -0.273437,0.1914 -0.3125,0.375 -0.03516,0.17969 0.01172,0.33594 0.144531,0.46875 l 2.429688,2.41797 c 0.214844,0.21484 0.328125,0.48047 0.328125,0.78515 0.0078,0.27344 -0.08203,0.51172 -0.265625,0.71094 -0.105469,0.10156 -0.226563,0.17969 -0.359375,0.23438 -0.136719,0.0547 -0.277344,0.0781 -0.421875,0.0742 -0.148438,-0.004 -0.285156,-0.0352 -0.417969,-0.0977 -0.132813,-0.0586 -0.25,-0.14453 -0.347656,-0.25 l -2.410157,-2.42578 c -0.0625,-0.0586 -0.132812,-0.10157 -0.21875,-0.12891 -0.08203,-0.0234 -0.164062,-0.0273 -0.246093,-0.0117 -0.08594,0.0195 -0.160157,0.0547 -0.226563,0.10938 -0.06641,0.0547 -0.117187,0.12109 -0.148437,0.20312 -0.191407,0.48828 -0.300781,0.99219 -0.328125,1.51563 -0.02344,0.52343 0.03516,1.03906 0.175781,1.54297 0.140625,0.5039 0.359375,0.97265 0.652344,1.40625 0.296875,0.43359 0.652343,0.80859 1.070312,1.125 0.621094,0.48828 1.316407,0.80078 2.09375,0.9414 0.777344,0.14063 1.542969,0.0937 2.292969,-0.14062 l 0.0625,0.0586 -2.089844,2.06641 C 81.125,161 81.074219,161.12109 81.074219,161.26172 v 4.42969 l -1.308594,1.40234 -0.398437,-0.40625 C 79.265625,166.58594 79.144531,166.53516 79,166.53516 c -0.140625,0 -0.265625,0.0508 -0.363281,0.15234 l -2.574219,2.57031 c -0.101562,0.10156 -0.152344,0.22266 -0.152344,0.36719 0,0.14062 0.05078,0.26562 0.152344,0.36328 l 0.152344,0.15234 -5.296875,5.3125 0.730469,0.73047 5.292968,-5.29687 4.9375,4.93359 -4.789062,4.78125 0.730468,0.73047 4.78125,-4.78516 0.148438,0.15235 c 0.101562,0.10156 0.222656,0.15234 0.367188,0.15234 0.144531,0 0.265624,-0.0508 0.367187,-0.15234 l 2.570313,-2.57031 c 0.101562,-0.10157 0.152343,-0.22266 0.152343,-0.36719 0,-0.14453 -0.05078,-0.26563 -0.152343,-0.36719 l -0.28125,-0.27734 1.199218,-1.28516 h 2.613282 c 0.140624,0 0.261718,-0.0508 0.363281,-0.14844 l 3.125,-3.11718 0.378906,0.375 c -0.234375,0.75 -0.285156,1.51562 -0.144531,2.28906 0.140625,0.77734 0.457031,1.47265 0.945312,2.09375 0.464844,0.59375 1.035156,1.05859 1.714844,1.39453 0.675781,0.33203 1.394531,0.5 2.148438,0.50391 0.601562,0.004 1.183593,-0.10938 1.738281,-0.33985 0.171871,-0.0664 0.277341,-0.1914 0.316411,-0.375 0.0312,-0.17969 -0.0156,-0.33594 -0.14454,-0.46484 l -2.429684,-2.42188 c -0.21875,-0.21875 -0.328125,-0.48047 -0.328125,-0.78906 0,-0.27344 0.09375,-0.51172 0.285157,-0.70703 0.105468,-0.0977 0.222656,-0.17188 0.355468,-0.22656 0.132813,-0.0508 0.269532,-0.0742 0.410156,-0.0703 0.140626,0.004 0.277344,0.0352 0.40625,0.0898 0.128907,0.0586 0.246094,0.14062 0.34375,0.24219 l 2.433598,2.42187 c 0.1289,0.12891 0.28125,0.17578 0.46093,0.14063 0.17969,-0.0352 0.3086,-0.14063 0.375,-0.3086 0.17579,-0.4375 0.28125,-0.89062 0.32032,-1.35937 0.0391,-0.46875 0.008,-0.9336 -0.0898,-1.39453 -0.0977,-0.46094 -0.26172,-0.89454 -0.48828,-1.3086 -0.22656,-0.41015 -0.51172,-0.78125 -0.84765,-1.10937 z m -5.625005,-2.8711 c 0.0039,0.14063 -0.04687,0.26563 -0.148437,0.36328 l -2.109376,2.10157 -0.04687,0.0469 c -0.101563,0.10156 -0.222657,0.15235 -0.363282,0.15235 -0.144531,0 -0.265625,-0.0508 -0.367187,-0.15235 l -0.605469,-0.60156 c -0.101562,-0.10156 -0.152344,-0.22266 -0.152344,-0.36719 0,-0.14062 0.05078,-0.26562 0.152344,-0.36328 l 0.300781,-0.30078 2.21875,-2.21094 0.980469,0.94531 c 0.101562,0.10938 0.152344,0.23829 0.140625,0.38672 z m -1.542969,-2.57422 c 0,0.14454 -0.04687,0.26563 -0.148437,0.36719 l -2.371094,2.33594 -0.304687,0.30469 c -0.101563,0.10156 -0.222657,0.15234 -0.367188,0.15234 -0.140625,0 -0.261719,-0.0508 -0.363281,-0.15234 l -0.04297,-0.043 c 0.253906,-0.1211 0.480469,-0.27735 0.679688,-0.47266 l 0.609374,-0.60156 c 0.101563,-0.10156 0.152344,-0.22266 0.152344,-0.36719 0,-0.14062 -0.05078,-0.26562 -0.152344,-0.36328 l -0.667968,-0.66406 1.851562,-1.84766 0.980469,0.96485 c 0.105469,0.10937 0.148437,0.23828 0.140625,0.38671 z m -2.304687,-3.53906 0.617187,0.58203 c 0.101563,0.10157 0.152344,0.22266 0.152344,0.36328 0,0.14454 -0.05078,0.26563 -0.152344,0.36719 l -2,1.9961 -1.339844,-1.33204 2.003907,-1.99609 c 0.101562,-0.0937 0.222656,-0.14062 0.359375,-0.13672 0.140625,0.004 0.257812,0.0586 0.355468,0.15625 z m -3.3125,-1.54297 c 0.101562,-0.10547 0.222656,-0.15625 0.367187,-0.15625 0.144532,0 0.265625,0.0508 0.367188,0.15625 l 0.96875,0.96485 -1.851563,1.84765 -1.160156,-1.15234 c -0.0625,-0.0625 -0.132813,-0.10547 -0.199219,-0.16406 z m -5.25,0.98047 c -0.617188,0.25 -1.257813,0.32813 -1.917969,0.23828 -0.660156,-0.0937 -1.253906,-0.34375 -1.78125,-0.75 -0.554688,-0.42578 -0.960938,-0.95703 -1.222656,-1.60156 -0.261719,-0.64453 -0.34375,-1.3125 -0.246094,-2 l 1.808594,1.80469 c 0.195312,0.19531 0.417968,0.35156 0.671875,0.45703 0.253906,0.10937 0.523437,0.16797 0.796875,0.17187 0.277344,0.004 0.546875,-0.0469 0.804687,-0.14843 0.257813,-0.10157 0.484375,-0.2461 0.683594,-0.44141 0.398437,-0.39844 0.59375,-0.875 0.59375,-1.4375 0,-0.59375 -0.210937,-1.09766 -0.632813,-1.51562 l -1.8125,-1.82422 c 0.601563,-0.0898 1.195313,-0.0391 1.773438,0.15234 0.578125,0.19141 1.082031,0.50391 1.511719,0.9375 0.261719,0.25781 0.484375,0.54688 0.664062,0.87109 0.179688,0.32422 0.304688,0.66407 0.382813,1.02735 0.07813,0.35937 0.101562,0.72656 0.07031,1.09375 -0.03125,0.36719 -0.113281,0.72265 -0.25,1.0664 -0.08594,0.21094 -0.04687,0.39844 0.113282,0.5586 l 1.066406,1.07031 -0.316406,0.3125 c -0.691407,-0.15625 -1.320313,-0.0234 -1.890626,0.39453 L 83.75,157.80859 c -0.160156,-0.16015 -0.34375,-0.19531 -0.554688,-0.11328 z m -0.08203,17.91406 -5.964844,-5.96484 L 79,167.79687 l 5.964844,5.96485 z M 89.375,170.80469 h -2.628906 c -0.148438,0 -0.277344,0.0547 -0.375,0.16406 l -1.324219,1.42578 -4.550781,-4.55469 1.46875,-1.57422 c 0.09375,-0.10156 0.136718,-0.21484 0.136718,-0.35156 V 161.5 L 84.5,159.10547 c 0.128906,-0.1211 0.277344,-0.21485 0.441406,-0.28125 0.167969,-0.0664 0.339844,-0.10156 0.515625,-0.10156 0.179688,0 0.351563,0.0352 0.515625,0.10156 0.167969,0.0664 0.3125,0.16015 0.441406,0.28125 l 4.246094,4.23437 -0.234375,0.23828 c -0.148437,0.14454 -0.3125,0.25782 -0.503906,0.33985 -0.191406,0.0781 -0.386719,0.11719 -0.59375,0.11719 -0.207031,0 -0.402344,-0.0391 -0.59375,-0.11719 -0.191406,-0.082 -0.359375,-0.19531 -0.503906,-0.33985 l -2.148438,-2.16796 c -0.101562,-0.0977 -0.222656,-0.14844 -0.367187,-0.14844 -0.140625,0 -0.261719,0.0508 -0.363282,0.15234 -0.101562,0.0977 -0.152343,0.22266 -0.152343,0.36328 0,0.14453 0.05078,0.26563 0.152343,0.36719 0.359376,0.35938 0.640626,0.77344 0.835938,1.24609 0.195312,0.47266 0.296875,0.96485 0.296875,1.47266 0,0.51172 -0.101563,1.00391 -0.296875,1.47656 -0.195312,0.47266 -0.476562,0.88672 -0.835938,1.2461 l 0.730469,0.73047 c 0.457031,-0.45704 0.8125,-0.98438 1.058594,-1.58204 0.25,-0.59765 0.371094,-1.22265 0.371094,-1.87109 0,-0.20312 -0.01172,-0.40234 -0.03516,-0.60547 l 0.03125,0.0312 c 0.488282,0.4961 1.085938,0.75391 1.785157,0.76563 l 0.511719,0.51562 c 0.285156,0.28125 0.628906,0.4336 1.03125,0.44531 0.01562,0.40235 0.164062,0.7461 0.449218,1.03125 l 0.578125,0.53907 c 0.125,0.125 0.269531,0.22656 0.429688,0.30078 z m 12.22656,0.4414 -1.812498,-1.80859 c -0.195312,-0.19531 -0.417968,-0.35156 -0.671874,-0.46094 -0.253907,-0.10547 -0.523438,-0.16406 -0.796876,-0.16797 -0.277343,-0.004 -0.546874,0.0469 -0.804687,0.14844 -0.257813,0.10156 -0.484375,0.25 -0.683594,0.44141 -0.402343,0.39453 -0.597656,0.875 -0.59375,1.43359 0,0.59766 0.210938,1.10156 0.632813,1.51953 l 1.808594,1.80078 c -0.691407,0.0977 -1.355469,0.0156 -2,-0.25 -0.644532,-0.26172 -1.179688,-0.66797 -1.605469,-1.21484 -0.40625,-0.52734 -0.65625,-1.11719 -0.75,-1.77344 -0.08984,-0.66015 -0.01172,-1.29687 0.238281,-1.91406 0.08203,-0.21094 0.03906,-0.39453 -0.125,-0.55469 l -0.605469,-0.60547 0.226563,-0.22656 1.234375,-1.22656 0.605469,0.60937 c 0.164062,0.16016 0.347656,0.19922 0.5625,0.11328 0.308593,-0.11718 0.628906,-0.1914 0.960937,-0.22265 0.328125,-0.0312 0.660156,-0.0234 0.984375,0.0312 0.328125,0.0508 0.644531,0.14453 0.949219,0.28125 0.300781,0.13281 0.582031,0.30469 0.843751,0.51172 0.25781,0.20703 0.48437,0.44531 0.68359,0.71093 0.19922,0.26563 0.35938,0.55079 0.48047,0.85938 0.125,0.30859 0.20703,0.62891 0.2461,0.95703 0.043,0.32813 0.0391,0.65625 -0.004,0.98828 z m 0,0"
       fill-opacity="1"
       fill-rule="nonzero"
       id="path450" />
  </g>
  <g
     clip-path="url(#016eabd7e2)"
     id="g456"
     transform="matrix(1.5004982,0,0,1.5004982,-81.343415,-48.027668)">
    <path
       fill="#d2b344"
       d="m 307.07812,157.44922 v -0.004 l -2.09375,-0.29687 c -0.29296,-0.043 -0.49609,-0.3125 -0.45312,-0.60938 0.0195,-0.14062 0.0937,-0.26953 0.20703,-0.35156 l 1.69141,-1.26953 c 0.23828,-0.17969 0.28515,-0.51563 0.10937,-0.75391 l -1.9375,-2.58203 c -0.17969,-0.23437 -0.51562,-0.28516 -0.7539,-0.10547 l -1.6875,1.26953 c -0.23829,0.17578 -0.57422,0.13282 -0.75391,-0.10547 -0.0898,-0.11328 -0.125,-0.26171 -0.10547,-0.40234 l 0.30078,-2.09375 c 0.043,-0.29297 -0.16406,-0.56641 -0.45703,-0.60937 l -3.19141,-0.45313 c -0.29296,-0.043 -0.5664,0.16016 -0.60937,0.45313 l -0.30078,2.09375 c -0.0391,0.29296 -0.3125,0.5 -0.60547,0.45703 -0.14453,-0.0195 -0.26953,-0.0977 -0.35547,-0.21094 l -1.26953,-1.69141 c -0.17578,-0.23437 -0.51563,-0.28515 -0.75,-0.10547 l -1.61719,1.21094 c -0.73047,-0.0781 -1.46875,-0.0781 -2.19922,0 -4.78906,0.54688 -8.54297,4.36719 -9.01172,9.16406 -0.0117,0.15235 -0.0195,0.30469 -0.0273,0.45313 h -0.16016 c -0.2539,0 -0.47656,0.17969 -0.52734,0.42969 l -0.37109,1.76953 -1.48828,-1.02735 c -0.21485,-0.14843 -0.5,-0.12109 -0.6836,0.0625 l -1.61328,1.61329 c -0.18359,0.18359 -0.21094,0.47265 -0.0625,0.68359 l 1.01953,1.48828 -1.76562,0.37109 c -0.25,0.0547 -0.42578,0.27344 -0.42578,0.52735 v 2.15234 c 0,0.25391 0.17968,0.47266 0.42578,0.52344 l 1.76953,0.375 -1.02344,1.48437 c -0.14453,0.21485 -0.12109,0.5 0.0625,0.6836 l 1.61719,1.61328 c 0.17969,0.18359 0.46875,0.21094 0.68359,0.0625 l 1.48438,-1.02344 0.375,1.76953 c 0.0508,0.25 0.26953,0.42969 0.52343,0.42969 h 2.15235 c 0.2539,0 0.47265,-0.17969 0.52734,-0.42969 l 0.3711,-1.76562 1.48437,1.01953 c 0.21484,0.14844 0.5,0.12109 0.68359,-0.0625 l 0.83594,-0.83594 v 1.53125 c 0.004,0.76563 0.41406,1.47266 1.07813,1.85156 v 2.98829 c 0,1.1914 0.96093,2.15234 2.14843,2.15234 h 2.15235 c 1.1875,0 2.15234,-0.96094 2.15234,-2.15234 v -2.98829 c 0.66406,-0.3789 1.07031,-1.08593 1.07422,-1.85156 v -2.1289 c 0.0156,-0.89454 0.48438,-1.71875 1.24219,-2.19532 0.44922,-0.28906 0.87109,-0.61328 1.26562,-0.96484 L 297.5,168.25781 c -0.35547,0.32031 -0.73438,0.60938 -1.13281,0.86719 -1.07032,0.67187 -1.72266,1.83984 -1.73828,3.09766 v 2.1289 c 0,0.59375 -0.48047,1.07813 -1.07422,1.07813 h -4.30078 c -0.59375,0 -1.07813,-0.48438 -1.07813,-1.07813 v -2.17187 c -0.0117,-1.23828 -0.65625,-2.38282 -1.70312,-3.03516 -4.26563,-2.67969 -5.54688,-8.30469 -2.8711,-12.56641 1.66406,-2.64453 4.5625,-4.25781 7.6875,-4.26562 -0.008,0.0195 -0.0156,0.0391 -0.0234,0.0586 -0.0195,0.14063 0.0195,0.28125 0.10547,0.39844 l 1.26563,1.6875 c 0.13672,0.17578 0.14844,0.41406 0.0351,0.59766 -0.11328,0.1875 -0.32421,0.28906 -0.53906,0.25781 l -2.09375,-0.29688 c -0.29297,-0.043 -0.5664,0.16016 -0.60547,0.45704 l -0.45703,3.1914 c -0.043,0.29688 0.16016,0.56641 0.45313,0.60938 l 2.09375,0.30078 c 0.29297,0.0391 0.5,0.3125 0.45703,0.60937 -0.0195,0.14063 -0.0977,0.26563 -0.21094,0.35157 l -1.6875,1.26953 c -0.23828,0.17578 -0.28906,0.51562 -0.10937,0.7539 l 1.9375,2.57813 c 0.17578,0.23828 0.51562,0.28906 0.75,0.10937 l 1.6914,-1.26953 c 0.23828,-0.17578 0.57422,-0.1289 0.75391,0.10938 0.0859,0.11328 0.12109,0.25781 0.10156,0.39843 l -0.29687,2.09375 c -0.043,0.29297 0.16015,0.56641 0.45312,0.60547 l 3.19531,0.45703 c 0.0234,0.004 0.0508,0.008 0.0742,0.008 0.26953,0 0.4961,-0.19922 0.53516,-0.46485 l 0.29687,-2.08984 c 0.043,-0.29297 0.31641,-0.5 0.60938,-0.45703 0.14062,0.0195 0.26953,0.0937 0.35547,0.21094 l 1.26562,1.6875 c 0.17969,0.23828 0.51563,0.28906 0.75391,0.10937 l 2.58203,-1.9375 c 0.23828,-0.17578 0.28516,-0.51562 0.10937,-0.75 l -1.26953,-1.69141 c -0.13281,-0.17578 -0.14453,-0.41015 -0.0312,-0.59765 0.10547,-0.19141 0.32032,-0.29297 0.53516,-0.25781 l 2.09375,0.29687 c 0.29297,0.043 0.56641,-0.16016 0.60937,-0.45312 l 0.45704,-3.19532 c 0.0391,-0.29297 -0.16407,-0.5664 -0.45704,-0.60937 z m -17.82421,19.05469 h 4.30078 v 1.07421 h -4.30078 z m 0,2.15234 h 4.30078 v 0.53516 c 0,0.59765 -0.48047,1.07812 -1.07422,1.07812 h -2.15235 c -0.59375,0 -1.07421,-0.48047 -1.07421,-1.07812 z m -4.28125,-9.27344 c 0.29296,0.23828 0.60156,0.46094 0.91796,0.66797 0.50782,0.32031 0.89063,0.80469 1.08594,1.375 l -1.15625,1.15234 -1.11719,-0.76953 c -0.48828,-0.33593 -1.15625,-0.21484 -1.49609,0.27344 -0.0781,0.11719 -0.13672,0.25 -0.16406,0.39063 l -0.28125,1.34375 h -1.28125 l -0.28125,-1.33985 c -0.1211,-0.58203 -0.69141,-0.95703 -1.27344,-0.83203 -0.14062,0.0273 -0.26953,0.0859 -0.38672,0.16406 l -1.11719,0.76953 -0.98046,-0.97656 0.76953,-1.11719 c 0.33593,-0.48828 0.21484,-1.16015 -0.27735,-1.49609 -0.11718,-0.082 -0.24609,-0.13672 -0.38672,-0.16797 l -1.33984,-0.28125 v -1.27734 l 1.33984,-0.28516 c 0.58204,-0.12109 0.95313,-0.6914 0.82813,-1.27344 -0.0312,-0.13671 -0.0859,-0.26953 -0.16406,-0.38671 l -0.76953,-1.11719 0.98046,-0.98047 1.11719,0.76953 c 0.48828,0.33984 1.15625,0.21484 1.4961,-0.27344 0.0781,-0.11718 0.13671,-0.25 0.16406,-0.39062 l 0.0937,-0.44531 c 0.0859,0.61718 0.23047,1.23046 0.42969,1.82421 -1.76954,0.21094 -3.03516,1.81641 -2.82422,3.58594 0.21093,1.76563 1.8164,3.03125 3.58593,2.82031 1.06641,-0.1289 2,-0.77343 2.48829,-1.73046 z m -0.83594,-0.75781 c -0.39844,1.11328 -1.63281,1.69531 -2.7461,1.29297 -1.11718,-0.40235 -1.69531,-1.63281 -1.29687,-2.75 0.30859,-0.85156 1.12109,-1.42188 2.02734,-1.41797 h 0.0195 c 0.4961,1.0625 1.17188,2.03516 1.9961,2.875 z m 21.94922,-8.05859 -1.5586,-0.22266 c -0.88281,-0.125 -1.69922,0.48437 -1.82422,1.36719 -0.0625,0.42578 0.0508,0.85547 0.30469,1.19922 l 0.94531,1.25781 -1.71875,1.29297 -0.94531,-1.26172 c -0.53515,-0.71094 -1.54687,-0.85938 -2.25781,-0.32422 -0.34375,0.25781 -0.57031,0.64062 -0.63281,1.0625 l -0.21485,1.5625 -2.1289,-0.30469 0.22265,-1.55859 c 0.125,-0.88281 -0.48828,-1.69922 -1.37109,-1.82813 -0.42188,-0.0586 -0.85547,0.0508 -1.19531,0.3086 l -1.26172,0.94531 -1.28906,-1.72266 1.25781,-0.94531 c 0.71484,-0.53125 0.85937,-1.54297 0.32422,-2.25781 -0.25782,-0.33985 -0.63672,-0.56641 -1.0625,-0.62891 l -1.5586,-0.22265 0.30469,-2.12891 1.55859,0.22266 c 0.88282,0.125 1.69922,-0.48829 1.82813,-1.36719 0.0586,-0.42578 -0.0508,-0.85547 -0.30859,-1.19922 l -0.94922,-1.26172 1.72265,-1.28906 0.94532,1.26172 c 0.53515,0.71093 1.54687,0.85547 2.25781,0.32031 0.34375,-0.25781 0.57031,-0.63672 0.6289,-1.0625 l 0.22266,-1.55859 2.12891,0.30468 -0.22266,1.5586 c -0.125,0.88281 0.48828,1.69922 1.37109,1.82422 0.42188,0.0625 0.85157,-0.0469 1.19532,-0.30469 l 1.25781,-0.94531 1.29297,1.71875 -1.26172,0.94531 c -0.71094,0.53515 -0.85547,1.54687 -0.32031,2.26172 0.25781,0.33984 0.63672,0.5664 1.0625,0.6289 l 1.55859,0.22266 -0.30469,2.125 z m -7.83203,-6.50782 c -2.375,0 -4.30079,1.92578 -4.30079,4.30078 0,2.37891 1.92579,4.30469 4.30079,4.30469 2.3789,0 4.30468,-1.92578 4.30468,-4.30469 -0.004,-2.375 -1.92968,-4.29687 -4.30468,-4.30078 z m 0,7.52735 c -1.78125,0 -3.22657,-1.44141 -3.22657,-3.22657 0,-1.78125 1.44532,-3.22656 3.22657,-3.22656 1.78125,0 3.22656,1.44531 3.22656,3.22656 0,1.78125 -1.44531,3.22657 -3.22656,3.22657 z m -7.38672,11.15234 h 1.07422 v 1.61328 h -1.07422 z m -1.8125,-5.28125 c -3.32032,-1.29687 -4.96094,-5.03906 -3.66407,-8.35937 0.50391,-1.28516 1.40235,-2.37891 2.57422,-3.11329 l -0.57812,-0.91015 c -3.51563,2.21875 -4.57031,6.86719 -2.35547,10.38281 0.85937,1.36328 2.13281,2.41406 3.63281,3 1.32813,0.51172 2.20313,1.78516 2.20313,3.20703 h 1.07812 c 0,-1.86719 -1.14844,-3.53906 -2.89062,-4.20703 z m 12.57031,1.51953 h 3.76172 v 1.07422 H 301.625 Z m -0.88281,3.63672 0.6875,-0.82422 3.22656,2.6875 -0.6875,0.82813 z m -2.34375,0.66406 h 1.07422 v 3.76563 h -1.07422 z m -22.71875,-15.04297 4.30078,-1.07421 0.26172,1.04296 -4.30078,1.07422 z m 0.89062,-5.49218 0.625,-0.875 3.76563,2.6875 -0.625,0.875 z m 4.60938,-3.53516 1.04297,-0.26562 1.09765,4.30468 -1.03906,0.26563 z m 0,0"
       fill-opacity="1"
       fill-rule="nonzero"
       id="path454" />
  </g>
  <g
     clip-path="url(#b78e52c74b)"
     id="g460"
     transform="matrix(1.5004982,0,0,1.5004982,-81.343415,-48.027668)">
    <path
       fill="#d2b344"
       d="m 235.6875,143.54687 v 2.14063 c -0.25781,3.19922 -1.32422,6.07422 -3.19922,8.61719 -0.0156,0.0234 -0.0391,0.0312 -0.0664,0.0195 -0.0234,-0.008 -0.0391,-0.0273 -0.0391,-0.0547 0.19141,-3.10937 -0.0703,-5.91406 -1.76172,-8.60547 -0.37109,-0.58594 -0.65625,-0.61328 -1.30859,-0.52734 -1.62109,0.21484 -2.82422,0.42578 -3.61328,0.63672 -1.81641,0.48437 -3.60156,1.0664 -5.35547,1.74218 -1.46094,0.56641 -3.04297,0.95313 -4.74219,1.16016 -0.44922,0.0547 -0.83984,0.15234 -1.17578,0.29297 -5.53906,2.33203 -10.02734,7.39844 -10.21875,13.63281 -0.0273,0.89844 -0.0117,1.60547 0.0547,2.11719 0.35547,2.79687 1.34375,5.34766 2.96484,7.65234 1.79297,2.54297 4.07813,4.64063 6.33594,6.76172 4.46094,4.1875 7.81641,8.92188 9.8125,14.69531 0.0508,0.14454 0.0234,0.27344 -0.0859,0.38282 l -4.80859,4.91797 c -0.11328,0.11718 -0.16016,0.0937 -0.13672,-0.0664 0.004,-0.0508 0.008,-0.12891 0,-0.23828 -0.40234,-8.62891 -4.00781,-15.32031 -10.81641,-20.07813 -1.71093,-1.19531 -3.8789,-2.34765 -5.85547,-3.41015 -4.76171,-2.5586 -8.45312,-5.60938 -9.89062,-11.03125 -0.0117,-0.0586 -0.0234,-0.0586 -0.0273,0 -0.0508,0.93359 0.21875,2.0039 0.42578,2.91015 0.72265,3.1836 2.4414,5.94532 4.97265,8.02735 2.02735,1.66797 3.82032,2.61328 6.58203,4.19922 1.91407,1.09765 3.65625,2.42968 5.22266,3.98437 4.54297,4.51172 6.24219,10.60156 6.14453,16.875 -0.0117,0.66797 -0.16406,1.51953 -0.14453,2.30469 0,0.0586 -0.0156,0.10547 -0.0547,0.14844 l -12.59765,13.13671 h -0.0625 l -52.35157,-32.76171 c -0.0547,-0.0352 -0.0586,-0.0781 -0.0156,-0.125 0.39062,-0.39844 0.9375,-0.94141 1.64844,-1.63282 6.53906,-6.35156 12.10937,-13.61718 15.64843,-21.85937 0.35547,-0.82422 0.27344,-0.8711 -0.24218,-0.13281 -0.30469,0.43359 -0.6836,1.08203 -1.04297,1.55468 -3.12891,4.13282 -7.12891,7.125 -12.00781,8.97657 -2.48438,0.9414 -5.05469,1.54296 -7.70313,1.80468 -1.20312,0.1211 -2.42969,0.20313 -3.67187,0.24219 -0.0312,0.004 -0.0469,-0.0117 -0.0547,-0.0391 -0.008,-0.0273 0,-0.0469 0.0273,-0.0586 0.1211,-0.0547 0.21094,-0.14843 0.32422,-0.19531 10.94922,-4.5 20.0625,-12.2539 24.79688,-23.24609 0.15625,-0.36719 0.25,-0.62891 0.28515,-0.79297 0.0742,-0.35156 0.0195,-0.37109 -0.16015,-0.0664 -0.80079,1.36719 -1.7461,2.625 -2.83204,3.78125 -2.67578,2.84766 -5.96484,4.48438 -9.86718,4.91016 -0.0508,0.008 -0.0625,-0.0117 -0.0312,-0.0547 5.5039,-7.89062 12.36718,-14.44922 21.01172,-18.64062 0.22265,-0.10547 0.21093,-0.15625 -0.0352,-0.15235 -0.25781,0.008 -0.5625,-0.0234 -0.83203,0.0234 -0.85938,0.13672 -1.69922,0.0898 -2.54688,0.21484 -0.1875,0.0273 -0.4375,0.0586 -0.74218,0.0937 -3.42579,0.36719 -6.89454,1.21485 -10.40235,2.53907 -0.0977,0.0352 -0.11719,0.0117 -0.0586,-0.0742 0.16797,-0.25391 0.41406,-0.59766 0.74609,-1.03125 4.80469,-6.28125 11.09375,-10.23047 18.86328,-11.84375 0.0273,-0.008 0.043,-0.0234 0.0469,-0.0508 0.004,-0.0273 -0.008,-0.0469 -0.0312,-0.0625 -2.21875,-1.10547 -4.5586,-1.80469 -7.02735,-2.08985 -1.24609,-0.14843 -2.38671,-0.20703 -3.41406,-0.18359 -0.42187,0.0117 -0.42969,-0.0469 -0.0273,-0.16797 2.08984,-0.64453 4.30078,-1.14062 6.51953,-1.35547 0.51172,-0.0469 0.99609,-0.15625 1.49609,-0.16406 1.57813,-0.0352 3.15625,-0.0352 4.73438,0.004 0.55469,0.0156 1.125,0.10547 1.75781,0.17578 3.97266,0.42187 7.76563,1.48047 11.38672,3.17578 0.0234,0.0117 0.0312,0.0312 0.0234,0.0586 -0.008,0.0273 -0.0273,0.0391 -0.0547,0.0391 -3.11719,-0.46094 -6.24219,-0.5 -9.375,-0.11719 -0.45313,0.0586 -0.45703,0.14062 -0.0117,0.24609 1.79688,0.4375 3.52344,1.0586 5.17969,1.86719 0.46094,0.22265 0.4375,0.29297 -0.0664,0.21484 -0.53515,-0.0859 -1.1914,-0.0781 -1.97656,0.0156 -0.35547,0.043 -0.71484,0.0703 -1.07422,0.0859 -0.42578,0.0195 -0.78516,0.0547 -1.07031,0.10938 -4.25391,0.80859 -8.10938,2.51562 -11.57031,5.12109 -0.32032,0.23828 -0.82032,0.53516 -1.15625,0.90625 -0.0859,0.0937 -0.0703,0.11719 0.0508,0.0703 5.54297,-2.14454 11.13672,-3.21094 16.79297,-3.19922 6.54687,0.008 13.00781,0.69531 19.39062,2.05468 0.0781,0.0156 0.14063,-0.008 0.19531,-0.0664 l 3.23047,-3.61719 c 0.0469,-0.0547 0.043,-0.10156 -0.0156,-0.14453 -3.08594,-2.29297 -6.47266,-3.88281 -10.16797,-4.76172 -2.3711,-0.57031 -5.67969,-0.88672 -7.73828,-1.21875 -7.28907,-1.17969 -13.59375,-4.33594 -18.92188,-9.46875 -0.0195,-0.0234 -0.0234,-0.0469 -0.008,-0.0703 0.0195,-0.0273 0.0391,-0.0352 0.0703,-0.0234 5.26172,2.10938 10.6836,3.71875 16.26953,4.82813 2.33203,0.46484 5.3086,0.96875 8.92188,1.51953 5.84375,0.88672 10.95312,3.29297 15.32812,7.21875 0.043,0.0352 0.043,0.0742 0.0117,0.11718 -1.46875,1.87891 -2.91797,3.75 -4.35156,5.6211 -0.19531,0.25781 -0.42969,0.47265 -0.69922,0.64062 -2.625,1.64844 -5.29687,3.09766 -8.00781,4.33594 -1.88672,0.86328 -4.41406,1.72656 -6.40235,1.48828 -2.01953,-0.23828 -3.48046,-1.41015 -5.17968,-2.40625 -1.13282,-0.66797 -2.47266,-1.01953 -4.02735,-1.0625 -4.09765,-0.10547 -8.53906,1.95313 -11.51172,4.5625 -4.39843,3.85938 -7.20703,8.66797 -8.42187,14.42969 -0.0977,0.45312 -0.16406,0.92969 -0.19922,1.41797 0,0.0195 0.008,0.0312 0.0273,0.0352 0.0156,0.004 0.0312,-0.004 0.0352,-0.0234 0.89453,-2.3086 1.72656,-4.16797 3.40234,-6.29688 1.1836,-1.5 2.59375,-2.73437 4.23438,-3.69531 0.0195,-0.008 0.0352,-0.004 0.0469,0.0117 0.0117,0.0156 0.0117,0.0312 0.004,0.0469 -0.60547,0.77344 -1.25391,1.58594 -1.73828,2.39063 -3.00391,4.9375 -3.61328,10.89453 -2.47266,16.51562 0.004,0.0195 0.0156,0.0312 0.0391,0.0312 0.0195,0.004 0.0352,-0.004 0.043,-0.0195 0.16407,-0.32422 0.13672,-0.74219 0.17969,-0.99609 0.14063,-0.82813 0.34766,-1.80469 0.625,-2.92188 0.74219,-2.99218 2.09766,-5.71484 4.06641,-8.16797 0.46484,-0.57812 0.52734,-0.53515 0.1914,0.125 -0.91406,1.80469 -1.45703,3.8711 -1.62109,6.19141 -0.22266,3.10156 0.15625,6.22656 1.14453,9.37891 0.0625,0.21093 0.12891,0.375 0.19531,0.48437 0.0742,0.125 0.10157,0.11719 0.0859,-0.0273 -0.84375,-8.33594 2.72266,-16.02735 9.91406,-20.28125 4.07032,-2.40235 9.03907,-3.31641 13.74219,-2.89453 0.35938,0.0352 0.66016,0.0937 0.90235,0.17578 0.14843,0.0508 0.14843,0.10156 0,0.15234 -1.73829,0.61328 -3.42579,1.15235 -5.05469,1.6211 -0.21875,0.0625 -0.42578,0.14843 -0.6211,0.26171 -0.0586,0.0352 -0.0547,0.0547 0.0156,0.0586 0.53906,0.0195 0.92187,0.0195 1.14062,0.008 4.70704,-0.30469 9.1875,-1.45312 13.44141,-3.44531 0.25391,-0.11719 0.51563,-0.1836 0.79297,-0.19531 1.92187,-0.0977 3.82812,-0.32032 5.71484,-0.67579 0.65235,-0.12109 1.27735,-0.28906 1.87891,-0.5 0.0273,-0.008 0.0352,-0.0234 0.0312,-0.0508 -0.004,-0.0273 -0.0195,-0.043 -0.0469,-0.043 -1.55078,-0.0508 -3.07812,-0.0156 -4.62109,-0.10546 -1.74219,-0.0977 -3.26953,-0.10157 -5.21875,-0.21485 -1.17578,-0.0664 -2.33984,-0.0156 -3.51172,-0.10937 -1.48437,-0.1211 -2.98047,-0.0859 -4.4414,-0.19141 -0.89844,-0.0664 -1.83204,0 -2.71875,-0.11719 -0.0547,-0.008 -0.0859,-0.0391 -0.0977,-0.0937 -0.008,-0.0547 0.0117,-0.0937 0.0625,-0.12109 1.49219,-0.78516 3.11719,-1.05078 4.77344,-1.26172 0.67187,-0.082 1.47265,-0.125 2.40625,-0.12109 6.78125,0.0234 13.61328,0.008 20.5,-0.0508 0.39453,-0.004 0.40625,-0.0625 0.0273,-0.1836 -0.42969,-0.13672 -0.84766,-0.0703 -1.28906,-0.13281 -0.59375,-0.082 -0.89844,-0.125 -0.91016,-0.12891 -2.96484,-0.28515 -5.92969,-0.57422 -8.89453,-0.86328 -0.0703,-0.008 -0.0859,-0.0391 -0.0391,-0.0937 1.94531,-2.42187 3.83594,-4.88672 5.66797,-7.39844 0.57031,-0.78125 0.50781,-0.83203 -0.1836,-0.15625 -2.55078,2.48829 -4.92187,5.16016 -7.49609,7.64063 -0.0273,0.0234 -0.0547,0.0234 -0.0781,0 -0.0273,-0.0234 -0.0312,-0.0508 -0.0117,-0.0781 l 5,-6.96093 c 0.0234,-0.0312 0.0273,-0.0625 0.008,-0.0977 -0.0156,-0.0352 -0.0469,-0.0508 -0.082,-0.0508 l -3.07813,0.008 c -0.0625,0 -0.0781,-0.0273 -0.0391,-0.0781 l 2.91406,-3.77344 c 0.0352,-0.0469 0.082,-0.0703 0.14453,-0.0664 3.0586,0.0352 5.94532,0.45313 8.65625,1.91407 4.14063,2.23828 6.72657,5.64062 7.75782,10.20703 0.0977,0.4375 0.0859,1.03515 0.24609,1.55468 z m -33.84375,-4.61718 c 1.32812,-0.61719 2.30469,-2.04297 2.26562,-3.55469 -0.004,-0.0703 -0.0391,-0.10156 -0.10546,-0.10156 l -1.4375,-0.008 c -0.0703,0 -0.10547,0.0352 -0.10938,0.10157 -0.24219,2.92187 -4.39453,2.92187 -4.80078,0.0117 -0.008,-0.0664 -0.0469,-0.0977 -0.10938,-0.10157 l -1.38281,-0.0156 c -0.0742,-0.004 -0.11328,0.0352 -0.12109,0.10547 -0.0469,0.45703 0.0156,0.89843 0.17578,1.32031 0.88672,2.3125 3.38672,3.28516 5.625,2.24219 z m -16.50391,31.91406 c -0.33593,-0.91406 -0.59375,-1.85156 -0.78125,-2.8125 0,-0.008 -0.004,-0.0117 -0.0117,-0.0117 -0.008,0 -0.0117,0.008 -0.0117,0.0117 -0.0273,0.21094 -0.0391,0.42187 -0.0312,0.63672 0.14453,3.26172 1.10156,6.20312 2.87109,8.82031 2.41797,3.58203 6.00391,5.69922 9.58984,7.89844 5.69922,3.49219 9.83203,8.63672 11.0625,15.32422 0.0859,0.46093 0.15625,0.83593 0.21875,1.13281 0.0625,0.30078 0.10157,0.29687 0.11328,-0.008 0.26563,-5.86719 -1.35546,-11.09375 -5.53906,-15.27735 -1.67969,-1.68359 -3.34375,-2.99609 -4.98437,-3.9375 -5.21485,-2.99218 -10.32813,-5.8164 -12.4961,-11.77734 z m 21.36719,33.62109 c -0.39453,-0.90234 -0.85156,-1.77343 -1.36719,-2.61328 -3.5625,-5.78125 -8.69531,-9.5625 -15.03125,-11.92578 -1.21875,-0.45312 -2.89062,-1.02344 -5.01172,-1.71094 -8.8164,-2.84765 -15.49218,-8.88281 -18.33593,-17.83984 -0.008,-0.0273 -0.0273,-0.0352 -0.0508,-0.0273 -0.0273,0.004 -0.0391,0.0234 -0.0352,0.0469 0.0195,0.14453 0.0469,0.30859 0.0781,0.48828 0.29297,1.63281 0.70313,3.23438 1.22266,4.80469 1.59375,4.80078 4.40625,8.625 8.44531,11.46875 2.45313,1.73047 5.32813,3.04297 8.19141,3.99609 5.11328,1.70313 9.0625,3.0586 13.02734,5.53516 3.625,2.26172 6.67578,5.19141 9.15235,8.79297 0.0156,0.0234 0.0352,0.0312 0.0625,0.0195 0.0273,-0.0117 0.0391,-0.0273 0.0312,-0.0586 -0.0469,-0.35938 -0.25391,-0.69141 -0.37891,-0.97657 z m -48.28906,-22.76562 5.76562,-7.6211 c 0.0273,-0.0312 0.0234,-0.0625 -0.004,-0.0898 -0.0312,-0.0234 -0.0625,-0.0234 -0.0898,0.004 l -9.29687,8.625 c -0.0312,0.0312 -0.0469,0.0664 -0.043,0.11328 0.004,0.043 0.0273,0.0781 0.0664,0.10156 8.80859,5.41797 17.60937,10.85938 26.40625,16.32031 0.42187,0.26172 0.75,0.45703 0.97656,0.57813 0.51562,0.27344 0.54297,0.23437 0.0781,-0.1211 -7.875,-6.01171 -15.875,-11.87109 -23.83984,-17.77343 -0.0547,-0.0391 -0.0625,-0.082 -0.0195,-0.13672 z m 0,0"
       fill-opacity="1"
       fill-rule="nonzero"
       id="path458" />
  </g>
  <g
     clip-path="url(#d5f4ab9400)"
     id="g470"
     transform="matrix(1.5004982,0,0,1.5004982,-81.343415,-48.027668)">
    <path
       fill="#d2b344"
       d="m 120.87891,228.98437 4.60547,9.33594 10.30078,1.4961 -7.45704,7.27343 1.76563,10.26172 -9.21484,-4.84375 -9.22657,4.84375 1.76172,-10.26172 -7.45312,-7.27343 10.30469,-1.4961 z m 0,0"
       fill-opacity="1"
       fill-rule="nonzero"
       id="path462" />
    <path
       fill="#d2b344"
       d="m 120.80469,228.89453 4.61328,9.33594 10.30078,1.49609 -7.45703,7.27344 1.76172,10.26172 -9.21875,-4.84375 -9.21485,4.84375 1.75782,-10.26172 -7.45703,-7.27344 10.30468,-1.49609 z m 0,0"
       fill-opacity="1"
       fill-rule="nonzero"
       id="path464" />
    <path
       fill="#d2b344"
       d="m 120.80469,228.89453 4.61328,9.33594 10.30078,1.49609 -7.45703,7.27344 1.76172,10.26172 -9.21875,-4.84375 -9.21485,4.84375 1.75782,-10.26172 -7.45703,-7.27344 10.30468,-1.49609 z m 0,0"
       fill-opacity="1"
       fill-rule="nonzero"
       id="path466" />
    <path
       fill="#d2b344"
       d="m 120.80469,228.89453 4.61328,9.33594 10.30078,1.49609 -7.45703,7.27344 1.76172,10.26172 -9.21875,-4.84375 -9.21485,4.84375 1.75782,-10.26172 -7.45703,-7.27344 10.30468,-1.49609 z m 0,0"
       fill-opacity="1"
       fill-rule="nonzero"
       id="path468" />
  </g>
  <g
     fill="#d2b344"
     fill-opacity="1"
     id="g478"
     transform="matrix(1.5004982,0,0,1.5004982,-81.343415,-48.027668)">
    <g
       transform="translate(137.97048,263.79337)"
       id="g476">
      <g
         id="g474">
        <path
           d="M 9.921875,4.265625 13.246094,5.691406 13.597656,-8.847656 10.144531,-10.335938 -0.164062,-0.0703125 3.160156,1.359375 4.898438,-0.5 10.074219,1.722656 Z m -3.019531,-6.882813 3.640625,-3.863281 -0.296875,5.300781 z m 0,0"
           id="path472" />
      </g>
    </g>
  </g>
  <g
     fill="#d2b344"
     fill-opacity="1"
     id="g486"
     transform="matrix(1.5004982,0,0,1.5004982,-81.343415,-48.027668)">
    <g
       transform="translate(152.10996,269.762)"
       id="g484">
      <g
         id="g482">
        <path
           d="m 7.378906,2.21875 c 1.078125,0.292969 2.144532,0.34375 3.21875,0.117188 1.0625,-0.210938 2.007813,-0.660157 2.863282,-1.320313 l -1.984376,-2.5625 C 10.527344,-0.800781 9.464844,-0.605469 8.25,-0.941406 7.242188,-1.21875 6.484375,-1.78125 6.007812,-2.640625 c -0.492187,-0.84375 -0.589843,-1.785156 -0.3125,-2.792969 0.277344,-1.007812 0.835938,-1.75 1.699219,-2.238281 0.839844,-0.480469 1.785157,-0.59375 2.792969,-0.316406 1.214844,0.335937 2.023438,1.0625 2.464844,2.171875 l 3.015625,-1.1875 c -0.398438,-1.003906 -0.984375,-1.855469 -1.789063,-2.601563 -0.804687,-0.726562 -1.746094,-1.246093 -2.820312,-1.539062 -1.859375,-0.511719 -3.621094,-0.289063 -5.28125,0.65625 -1.65625,0.941406 -2.734375,2.347656 -3.242188,4.183593 -0.507812,1.859376 -0.300781,3.613282 0.640625,5.273438 0.945313,1.660156 2.347657,2.738281 4.203125,3.25 z m 0,0"
           id="path480" />
      </g>
    </g>
  </g>
  <g
     fill="#d2b344"
     fill-opacity="1"
     id="g494"
     transform="matrix(1.5004982,0,0,1.5004982,-81.343415,-48.027668)">
    <g
       transform="translate(166.31766,273.61491)"
       id="g492">
      <g
         id="g490">
        <path
           d="M 10.707031,1.410156 14.292969,1.882812 10.6875,-12.207031 6.957031,-12.699219 -0.179688,-0.0234375 3.410156,0.449219 4.578125,-1.8125 l 5.585937,0.738281 z m -4.773437,-5.800781 2.453125,-4.707031 1.152343,5.179687 z m 0,0"
           id="path488" />
      </g>
    </g>
  </g>
  <g
     fill="#d2b344"
     fill-opacity="1"
     id="g502"
     transform="matrix(1.5004982,0,0,1.5004982,-81.343415,-48.027668)">
    <g
       transform="translate(181.54582,275.52242)"
       id="g500">
      <g
         id="g498">
        <path
           d="m 1.261719,-0.0078125 4.625,-0.03125 c 2.214843,-0.0117187 3.917969,-0.6523435 5.117187,-1.9374995 1.179688,-1.269532 1.78125,-2.890626 1.769532,-4.855469 -0.01172,-1.941407 -0.632813,-3.558594 -1.832032,-4.828125 -1.210937,-1.253906 -2.925781,-1.890625 -5.140625,-1.875 l -4.625,0.02734 z m 3.328125,-2.9374995 -0.046875,-7.667969 1.097656,-0.0078 c 1.1875,-0.0078 2.070313,0.347656 2.6875,1.046875 0.617187,0.714844 0.929687,1.632813 0.933594,2.765625 0.00781,1.152331 -0.292969,2.0703 -0.898438,2.777331 C 7.753906,-3.308594 6.875,-2.960938 5.6875,-2.953125 Z m 0,0"
           id="path496" />
      </g>
    </g>
  </g>
  <g
     fill="#d2b344"
     fill-opacity="1"
     id="g510"
     transform="matrix(1.5004982,0,0,1.5004982,-81.343415,-48.027668)">
    <g
       transform="translate(196.10136,275.2902)"
       id="g508">
      <g
         id="g506">
        <path
           d="M 8.625,-11.769531 8.253906,-14.664062 -0.351562,-13.566406 1.355469,-0.171875 9.964844,-1.273438 9.59375,-4.164062 4.308594,-3.488281 4.007812,-5.847656 8.542969,-6.425781 8.175781,-9.316406 3.640625,-8.738281 3.339844,-11.097656 Z m 0,0"
           id="path504" />
      </g>
    </g>
  </g>
  <g
     fill="#d2b344"
     fill-opacity="1"
     id="g518"
     transform="matrix(1.5004982,0,0,1.5004982,-81.343415,-48.027668)">
    <g
       transform="translate(208.044,273.93296)"
       id="g516">
      <g
         id="g514">
        <path
           d="m 8.929688,-16.460938 -2.070313,7.738282 -5.722656,-5.59375 -3.503907,0.964844 L 1.214844,-0.335938 4.441406,-1.222656 2.246094,-9.207031 8.398438,-3.058594 10.574219,-11.5 12.773438,-3.515625 16,-4.40625 12.417969,-17.421875 Z m 0,0"
           id="path512" />
      </g>
    </g>
  </g>
  <g
     fill="#d2b344"
     fill-opacity="1"
     id="g526"
     transform="matrix(1.5004982,0,0,1.5004982,-81.343415,-48.027668)">
    <g
       transform="translate(226.32014,268.59114)"
       id="g524">
      <g
         id="g522">
        <path
           d="m 5.929688,-17.386719 -3.375,1.496094 -0.726563,5.023437 -4.210937,-2.839843 -3.40625,1.507812 7.25,4.644531 2.554687,5.777344 3.0625,-1.355468 L 4.5,-8.957031 Z m 0,0"
           id="path520" />
      </g>
    </g>
  </g>
  <g
     fill="#d2b344"
     fill-opacity="1"
     id="g534"
     transform="matrix(1.5004982,0,0,1.5004982,-81.343415,-48.027668)">
    <g
       transform="translate(120.36192,101.4036)"
       id="g532">
      <g
         id="g530">
        <path
           d="m 1.550781,-1.457031 3.789063,-3.570313 -14.390625,-15.289062 -3.792969,3.570312 z m 0,0"
           id="path528" />
      </g>
    </g>
  </g>
  <g
     fill="#d2b344"
     fill-opacity="1"
     id="g542"
     transform="matrix(1.5004982,0,0,1.5004982,-81.343415,-48.027668)">
    <g
       transform="translate(125.33242,95.698849)"
       id="g540">
      <g
         id="g538">
        <path
           d="m 2.328125,-26.929688 7.46875,11.035157 -15.445313,-5.636719 -4.496093,3.042969 L 1.625,-1.097656 5.9375,-4.015625 -1.566406,-15.101562 13.890625,-9.398438 18.410156,-12.457031 6.640625,-29.847656 Z m 0,0"
           id="path536" />
      </g>
    </g>
  </g>
  <g
     fill="#d2b344"
     fill-opacity="1"
     id="g550"
     transform="matrix(1.5004982,0,0,1.5004982,-81.343415,-48.027668)">
    <g
       transform="translate(142.91611,83.414588)"
       id="g548">
      <g
         id="g546">
        <path
           d="m 8.425781,-25.683594 4.746094,12.449219 -13.746094,-9.019531 -5.074219,1.933594 7.480469,19.621093 4.863281,-1.855469 -4.765624,-12.503906 13.742187,9.082032 5.097656,-1.945313 -7.480469,-19.617187 z m 0,0"
           id="path544" />
      </g>
    </g>
  </g>
  <g
     fill="#d2b344"
     fill-opacity="1"
     id="g558"
     transform="matrix(1.5004982,0,0,1.5004982,-81.343415,-48.027668)">
    <g
       transform="translate(162.85738,75.485894)"
       id="g556">
      <g
         id="g554">
        <path
           d="m 11.910156,-1.332031 c 2.941406,-0.398438 5.328125,-1.765625 7.128906,-4.128907 1.796876,-2.363281 2.507813,-5.03125 2.105469,-8 -0.398437,-2.941406 -1.792969,-5.320312 -4.15625,-7.121093 -2.363281,-1.796875 -5.03125,-2.511719 -7.972656,-2.113281 -2.96875,0.402343 -5.347656,1.800781 -7.148437,4.164062 -1.7968755,2.359375 -2.484376,5.023438 -2.085938,7.964844 0.402344,2.96875 1.773438,5.355468 4.136719,7.152344 2.363281,1.800781 5.027343,2.484374 7.992187,2.082031 z m -0.683594,-5.050781 c -1.609374,0.21875 -3.039062,-0.125 -4.238281,-1.0625 -1.226562,-0.90625 -1.9375,-2.195313 -2.15625,-3.804688 -0.21875,-1.609375 0.128907,-3.011719 1.066407,-4.242188 0.910156,-1.195312 2.195312,-1.933593 3.804687,-2.152343 1.609375,-0.21875 3.015625,0.15625 4.238281,1.0625 1.203125,0.941406 1.9375,2.195312 2.15625,3.804687 0.21875,1.609375 -0.152344,3.046875 -1.066406,4.242188 -0.933594,1.230468 -2.195312,1.9375 -3.804688,2.152344 z m 0,0"
           id="path552" />
      </g>
    </g>
  </g>
  <g
     fill="#d2b344"
     fill-opacity="1"
     id="g566"
     transform="matrix(1.5004982,0,0,1.5004982,-81.343415,-48.027668)">
    <g
       transform="translate(183.99867,72.464948)"
       id="g564">
      <g
         id="g562">
        <path
           d="M 17.96875,-19.585938 11.226562,-4.632812 7.003906,-20.492188 1.171875,-20.972656 7.839844,0.648438 13.671875,1.128906 23.800781,-19.101562 Z m 0,0"
           id="path560" />
      </g>
    </g>
  </g>
  <g
     fill="#d2b344"
     fill-opacity="1"
     id="g574"
     transform="matrix(1.5004982,0,0,1.5004982,-81.343415,-48.027668)">
    <g
       transform="translate(203.65021,74.403341)"
       id="g572">
      <g
         id="g570">
        <path
           d="m 2.070312,0.484375 5.070313,1.191406 4.796875,-20.445312 -5.070312,-1.1875 z m 0,0"
           id="path568" />
      </g>
    </g>
  </g>
  <g
     fill="#d2b344"
     fill-opacity="1"
     id="g582"
     transform="matrix(1.5004982,0,0,1.5004982,-81.343415,-48.027668)">
    <g
       transform="translate(211.4265,75.892052)"
       id="g580">
      <g
         id="g578">
        <path
           d="m 8.039062,3.285156 c 1.941407,0.71875 3.765626,0.800782 5.503907,0.222656 1.738281,-0.582031 2.953125,-1.769531 3.617187,-3.554687 0.429688,-1.15625 0.5625,-2.242187 0.429688,-3.246094 -0.132813,-1.007812 -0.460938,-1.8125 -0.960938,-2.476562 -0.535156,-0.648438 -1.109375,-1.277344 -1.753906,-1.875 -0.667969,-0.609375 -1.28125,-1.132813 -1.867188,-1.5625 -0.617187,-0.4375 -1.070312,-0.902344 -1.390624,-1.410157 -0.328126,-0.480468 -0.382813,-0.980468 -0.195313,-1.476562 0.175781,-0.472656 0.433594,-0.765625 0.84375,-0.910156 0.402344,-0.121094 0.847656,-0.105469 1.320313,0.07031 1.023437,0.378906 1.855468,1.347656 2.539062,2.882813 l 4.210938,-1.839844 c -0.46875,-1.160156 -1.132813,-2.183594 -2.011719,-3.105469 -0.910157,-0.9375 -1.941407,-1.617187 -3.148438,-2.066406 -1.730469,-0.640625 -3.421875,-0.671875 -5.078125,-0.152344 -1.667968,0.542969 -2.84375,1.78125 -3.542968,3.671875 -0.46875,1.257813 -0.570313,2.414063 -0.253907,3.488281 0.320313,1.074219 0.832031,1.953126 1.585938,2.648438 0.71875,0.71875 1.460937,1.378906 2.253906,1.972656 0.796875,0.59375 1.414063,1.183594 1.90625,1.785156 0.492187,0.601563 0.632813,1.191407 0.417969,1.765626 -0.175782,0.472656 -0.53125,0.789062 -0.996094,0.914062 -0.472656,0.152344 -1.046875,0.089844 -1.730469,-0.164062 C 8.847656,-1.464844 8.164062,-1.957031 7.671875,-2.644531 7.144531,-3.320312 6.871094,-4.109375 6.824219,-5.023438 l -4.792969,1 c 0.167969,1.554688 0.804688,2.984376 1.855469,4.332032 1.054687,1.347656 2.445312,2.34375 4.152343,2.976562 z m 0,0"
           id="path576" />
      </g>
    </g>
  </g>
  <g
     fill="#d2b344"
     fill-opacity="1"
     id="g590"
     transform="matrix(1.5004982,0,0,1.5004982,-81.343415,-48.027668)">
    <g
       transform="translate(225.44733,80.968606)"
       id="g588">
      <g
         id="g586">
        <path
           d="m 24.058594,-10.558594 -13.519532,-7.605468 -2.222656,3.953124 4.511719,2.539063 -8.070313,14.347656 4.515626,2.539063 8.070312,-14.347656 4.488281,2.527343 z m 0,0"
           id="path584" />
      </g>
    </g>
  </g>
  <g
     fill="#d2b344"
     fill-opacity="1"
     id="g598"
     transform="matrix(1.5004982,0,0,1.5004982,-81.343415,-48.027668)">
    <g
       transform="translate(237.787,87.364695)"
       id="g596">
      <g
         id="g594">
        <path
           d="m 12.90625,10.753906 4.324219,3.601563 6.964843,-21.527344 -4.496093,-3.746094 -19.914063,10.738281 4.324219,3.601563 3.414063,-2 6.734374,5.609375 z M 11.453125,-0.84375 18.589844,-4.992188 15.796875,2.777344 Z m 0,0"
           id="path592" />
      </g>
    </g>
  </g>
  <g
     clip-path="url(#c0af6f10f6)"
     id="g608"
     transform="matrix(1.5004982,0,0,1.5004982,-81.343415,-48.027668)">
    <path
       fill="#d2b344"
       d="m 256.19531,228.98437 4.60547,9.33594 10.30469,1.4961 -7.45703,7.27343 1.76562,10.26172 -9.21875,-4.84375 -9.22265,4.84375 1.76171,-10.26172 -7.45312,-7.27343 10.30469,-1.4961 z m 0,0"
       fill-opacity="1"
       fill-rule="nonzero"
       id="path600" />
    <path
       fill="#d2b344"
       d="m 256.125,228.89453 4.61328,9.33594 10.30078,1.49609 -7.45703,7.27344 1.76172,10.26172 -9.21875,-4.84375 -9.21875,4.84375 1.76172,-10.26172 -7.45703,-7.27344 10.30078,-1.49609 z m 0,0"
       fill-opacity="1"
       fill-rule="nonzero"
       id="path602" />
    <path
       fill="#d2b344"
       d="m 256.125,228.89453 4.61328,9.33594 10.30078,1.49609 -7.45703,7.27344 1.76172,10.26172 -9.21875,-4.84375 -9.21875,4.84375 1.76172,-10.26172 -7.45703,-7.27344 10.30078,-1.49609 z m 0,0"
       fill-opacity="1"
       fill-rule="nonzero"
       id="path604" />
    <path
       fill="#d2b344"
       d="m 256.125,228.89453 4.61328,9.33594 10.30078,1.49609 -7.45703,7.27344 1.76172,10.26172 -9.21875,-4.84375 -9.21875,4.84375 1.76172,-10.26172 -7.45703,-7.27344 10.30078,-1.49609 z m 0,0"
       fill-opacity="1"
       fill-rule="nonzero"
       id="path606" />
  </g>
</svg>
